<?xml version="1.0" encoding="UTF-8" standalone="no"?>
<!-- Created with Inkscape (http://www.inkscape.org/) -->

<svg
   width="256"
   height="256"
   viewBox="0 0 256 256"
   version="1.1"
   id="svg1"
   xml:space="preserve"
   inkscape:version="1.4 (e7c3feb100, 2024-10-09)"
   sodipodi:docname="icon.svg"
   inkscape:export-filename="icon.png"
   inkscape:export-xdpi="96"
   inkscape:export-ydpi="96"
   xmlns:inkscape="http://www.inkscape.org/namespaces/inkscape"
   xmlns:sodipodi="http://sodipodi.sourceforge.net/DTD/sodipodi-0.dtd"
   xmlns="http://www.w3.org/2000/svg"
   xmlns:svg="http://www.w3.org/2000/svg"><sodipodi:namedview
     id="namedview1"
     pagecolor="#ffffff"
     bordercolor="#000000"
     borderopacity="0.25"
     inkscape:showpageshadow="2"
     inkscape:pageopacity="0.0"
     inkscape:pagecheckerboard="false"
     inkscape:deskcolor="#d1d1d1"
     inkscape:document-units="px"
     inkscape:zoom="2"
     inkscape:cx="101.75"
     inkscape:cy="122.75"
     inkscape:window-width="2560"
     inkscape:window-height="1003"
     inkscape:window-x="0"
     inkscape:window-y="0"
     inkscape:window-maximized="1"
     inkscape:current-layer="layer1"
     inkscape:export-bgcolor="#ffffff00" /><defs
     id="defs1"><inkscape:path-effect
       effect="fillet_chamfer"
       id="path-effect12"
       is_visible="true"
       lpeversion="1"
       nodesatellites_param="F,0,0,1,0,0,0,1 @ F,0,0,1,0,0,0,1 @ F,0,0,1,0,0,0,1 @ F,0,0,1,0,0,0,1"
       radius="0"
       unit="px"
       method="auto"
       mode="F"
       chamfer_steps="1"
       flexible="false"
       use_knot_distance="true"
       apply_no_radius="true"
       apply_with_radius="true"
       only_selected="false"
       hide_knots="false" /><inkscape:path-effect
       effect="fillet_chamfer"
       id="path-effect4"
       is_visible="true"
       lpeversion="1"
       nodesatellites_param="F,0,0,1,0,0,0,1 @ F,0,0,1,0,0,0,1 @ F,0,0,1,0,0,0,1 @ F,0,0,1,0,0,0,1"
       radius="0"
       unit="px"
       method="auto"
       mode="F"
       chamfer_steps="1"
       flexible="false"
       use_knot_distance="true"
       apply_no_radius="true"
       apply_with_radius="true"
       only_selected="false"
       hide_knots="false" /></defs><g
     inkscape:label="Camada 1"
     inkscape:groupmode="layer"
     id="layer1"><g
       id="g22"
       transform="matrix(0.83333333,0,0,0.83333333,-150.33333,10.666667)"
       style="stroke-width:1.19999"><g
         id="g19"
         transform="matrix(2.5807856,0,0,2.5807856,-113.77828,-91.25264)"
         style="stroke-width:0.464975"><path
           style="fill:#e1e1d9;fill-opacity:1;stroke:none;stroke-width:0.116243;stroke-linecap:round;stroke-linejoin:round;stroke-dasharray:none;stroke-opacity:0.430041"
           d="m 47.0625,69.171875 c 8.848294,-0.857723 16.436361,0.04385 24.361248,0.475212 l 0.01439,-3.475212 0.374362,-28.167969 1.272075,-0.799888 1.343491,28.696489 -0.05603,4.70626 c 4.447976,1.496271 9.944218,3.033271 13.909218,5.736983 l 1.645383,-0.186129 1.774101,1.132916 -1.627624,0.584384 -0.35436,1.61401 C 77.49023,81.982547 56.978976,84.947546 48.111721,74.09375 Z"
           id="path17"
           sodipodi:nodetypes="cccccccccccccc" /><g
           id="g18"
           style="stroke-width:0.464975"><path
             style="fill:#3f3e29;fill-opacity:1;stroke:none;stroke-width:0.17574;stroke-linecap:butt;stroke-linejoin:round"
             d="M 71.409359,70.101453 C 58.681237,69.152459 53.666691,69.734638 48.111721,70.28495 56.292218,68.080478 64.150536,68.610075 71.438138,69.192722 Z"
             id="path5"
             sodipodi:nodetypes="cccc" /><path
             style="fill:#3f3e29;fill-opacity:1;stroke:none;stroke-width:0.17574;stroke-linecap:butt;stroke-linejoin:round"
             d="m 48.111721,70.28495 c 7.119781,9.823762 24.549231,9.311505 42.833914,6.565077 -6.89492,-4.821857 -11.681688,-5.427412 -16.573603,-6.24326 l 0.03218,-0.866965 c 6.864133,1.475261 12.82175,3.599494 17.684622,7.12613 0.07712,0.17788 0.05563,0.340589 -0.06447,0.488128 -5.371709,1.616221 -14.413486,2.609083 -25.633408,2.134871 C 59.235403,78.845108 51.003117,76.644647 48.111721,70.28495 Z"
             id="path6"
             sodipodi:nodetypes="cccccccc" /><path
             style="fill:#3f3e29;fill-opacity:1;stroke:none;stroke-width:0.17574;stroke-linecap:butt;stroke-linejoin:round"
             d="m 48.111721,70.28495 0.772363,4.827263 c 5.470898,8.442347 22.088751,10.615956 41.912711,5.627784 l 0.903939,-3.44946 -1.126419,3.094808 c -8.805797,1.80259 -32.868296,4.415643 -41.375981,-5.484181 z"
             id="path7"
             sodipodi:nodetypes="ccccccc" /><path
             style="fill:#3f3e29;fill-opacity:1;stroke:none;stroke-width:0.17574;stroke-linecap:butt;stroke-linejoin:round"
             d="m 64.763394,69.739802 c -3.207108,0.785623 -12.58182,4.652748 -13.432169,0.233816 l -0.266866,0.02406 c 1.184563,5.151494 12.394846,0.287272 13.943452,-0.278896 z"
             id="path8"
             sodipodi:nodetypes="ccccc" /><path
             style="fill:#3f3e29;fill-opacity:1;stroke:none;stroke-width:0.17574;stroke-linecap:butt;stroke-linejoin:round"
             d="m 51.232289,74.359116 c 1.386405,2.245393 3.727982,4.211582 6.463023,6.062759 L 59.234375,80.8125 C 56.90673,79.134937 54.525345,78.191813 52.3125,74.945312 Z"
             id="path9"
             sodipodi:nodetypes="ccccc" /><path
             style="fill:#3f3e29;fill-opacity:1;stroke:none;stroke-width:0.17574;stroke-linecap:butt;stroke-linejoin:round"
             d="m 63.705902,74.975416 -6.702703,1.563294 0.626004,0.29611 z"
             id="path10" /><path
             style="fill:#3f3e29;fill-opacity:1;stroke:none;stroke-width:0.17574;stroke-linecap:butt;stroke-linejoin:round"
             d="m 85.729915,81.200179 1.637272,-2.129867 -1.304931,2.083369 z"
             id="path11" /><path
             style="fill:#3f3e29;fill-opacity:1;stroke:none;stroke-width:0.17576;stroke-linecap:butt;stroke-linejoin:round;stroke-dasharray:none"
             d="m 67.009934,79.513693 c 2.240055,1.411978 4.899771,2.08593 8.838317,0.510907 0.111047,0.01 0.210376,0.303858 0.110485,0.342505 -3.366037,1.500822 -7.59386,1.020272 -9.56778,-0.878174 z"
             id="path12"
             sodipodi:nodetypes="ccccc"
             inkscape:path-effect="#path-effect12"
             inkscape:original-d="m 67.009934,79.513693 c 2.240055,1.411978 4.899771,2.08593 8.838317,0.510907 0.111047,0.01 0.210376,0.303858 0.110485,0.342505 -3.366037,1.500822 -7.59386,1.020272 -9.56778,-0.878174 z" /><path
             style="fill:#3f3e29;fill-opacity:1;stroke:none;stroke-width:0.17576;stroke-linecap:butt;stroke-linejoin:round;stroke-dasharray:none"
             d="m 84.126027,77.761847 c -3.898725,-1.758619 -10.661855,-3.704733 -12.520486,0.808778 0.01475,-1.570371 2.154512,-2.952916 3.800768,-3.120122 3.928827,-0.207698 6.519015,1.384317 8.719718,2.311344 z"
             id="path13"
             sodipodi:nodetypes="cccc" /><path
             style="fill:#3f3e29;fill-opacity:1;stroke:none;stroke-width:0.17576;stroke-linecap:butt;stroke-linejoin:round;stroke-dasharray:none"
             d="m 75.186369,78.491174 c 0.919565,-1.656354 3.168638,-1.656354 4.095568,-0.2534 l 0.430614,-0.03523 c -0.614139,-0.927313 -1.478712,-1.383221 -2.593718,-1.367725 -1.023499,-0.0036 -1.767102,0.552526 -2.230809,1.668479 z"
             id="path14"
             sodipodi:nodetypes="cccccc" /><path
             style="fill:#3f3e29;fill-opacity:1;stroke-width:0.464975;stroke-linejoin:round"
             d="m 71.433594,37.814453 0.105638,12.080179 0.534987,23.792868 c 1.664526,2.120035 2.940389,0.578079 3.298828,0 L 75.262299,65.247052 74.060547,37.814453 c -0.05803,-1.155044 -2.623298,-1.20442 -2.626953,0 z m 0.378906,0.189453 c 0.675713,-0.324706 1.365344,-0.736291 1.871094,0 l 1.3125,35.494141 c -0.456552,1.055515 -1.922554,1.063916 -2.542969,0 l -0.08809,-24.491358 z"
             id="rect14"
             sodipodi:nodetypes="ccccccccccccc" /><path
             style="fill:#3f3e29;fill-opacity:1;stroke-width:0.464975;stroke-linecap:round;stroke-linejoin:round"
             d="m 73.923828,39.839843 c -0.06857,0 -0.13597,0.005 -0.16211,0.06836 -1.987516,5.013951 -0.621999,8.583094 0.421875,10.572265 0.02059,0.06572 0.09046,0.102398 0.15625,0.08203 0.06673,-0.02056 0.103676,-0.09181 0.08203,-0.158203 -1.063269,-2.501881 -2.389779,-5.452648 -0.427734,-10.402342 0.02532,-0.06418 -0.0013,-0.16211 -0.07031,-0.16211 z"
             id="path15"
             sodipodi:nodetypes="scccccss" /><path
             style="fill:#3f3e29;fill-opacity:1;stroke-width:0.464975;stroke-linecap:round;stroke-linejoin:round"
             d="m 71.87197,50.58008 c 0.06685,-0.01523 0.133684,-0.02532 0.173244,0.03065 1.542069,1.666082 2.862473,6.541544 2.744046,10.574788 -0.0055,0.06865 -0.06546,0.119932 -0.13413,0.114683 -0.06963,-0.0052 -0.121477,-0.06649 -0.115117,-0.136034 -0.645874,-2.774977 -0.214547,-5.802021 -2.700595,-10.41041 -0.03894,-0.05696 -0.03473,-0.15835 0.03255,-0.173676 z"
             id="path16"
             sodipodi:nodetypes="scccccss" /></g><path
           style="fill:#ffffff;fill-opacity:1;stroke:none;stroke-width:0.116243;stroke-linecap:round;stroke-linejoin:round;stroke-dasharray:none;stroke-opacity:0.430041"
           d="M 76.632697,67.396115 C 70.300346,59.498581 68.693614,49.701178 71.8125,38.003906 61.992563,46.142534 54.311107,55.885023 46.292969,65.375 56.438148,64 68.716905,64.5 76.632697,67.396115 Z"
           id="path18"
           sodipodi:nodetypes="cccc" /><path
           style="fill:#3f3e29;fill-opacity:1;stroke-width:0.464975;stroke-linecap:round;stroke-linejoin:round"
           d="m 72.25344,37.207566 c -0.377609,0.175728 -0.746016,0.547352 -0.763797,0.606711 -1.684361,2.868663 -3.761827,5.527499 -6.688979,8.513689 -5.875267,5.993764 -13.230288,12.397858 -19.11707,19.134925 -0.111489,0.127951 -0.01092,0.326608 0.158203,0.3125 4.331968,-0.36693 9.045517,-0.09155 13.964468,0.264385 4.925688,0.356422 9.617816,0.494781 15.451547,1.981705 0.171945,0.04401 0.304237,-0.151839 0.199219,-0.294922 -9.356242,-12.645296 -2.372456,-30.522541 -2.372456,-30.522541 -0.229549,-0.125549 -0.591862,-0.103222 -0.831135,0.0035 z m -1.502938,4.180782 c -0.842707,2.5204 -4.151214,14.473219 4.186998,26.185871 -5.649975,-1.406449 -10.167559,-2.166923 -14.975165,-2.514801 -4.766461,-0.3449 -9.441611,-0.0205 -13.669366,0.315582 5.89484,-6.666445 13.490809,-12.823416 19.408136,-18.69058 2.461835,-2.440966 4.090355,-4.468303 5.049397,-5.296072 z"
           id="path4"
           sodipodi:nodetypes="ccsccsccccccscsc" /></g><g
         id="g21"
         transform="matrix(0.46692228,0,0,0.46692228,-2.514685,13.154772)"
         style="stroke-width:2.57001"><path
           style="fill:#e1e1d9;fill-opacity:1;stroke:none;stroke-width:0.642505;stroke-linecap:round;stroke-linejoin:round;stroke-dasharray:none;stroke-opacity:0.430041"
           d="M 180.29621,22.627417 178.3125,-6.75 208.125,-16.3125 267.0625,10.5 241.125,54.101965 Z"
           id="path20" /><path
           style="font-size:29.3333px;line-height:1.45;font-family:Roboto;-inkscape-font-specification:Roboto;text-align:center;letter-spacing:0px;word-spacing:0px;text-anchor:middle;white-space:pre;fill:#3f3e29;stroke-width:0.642505;stroke-linecap:round;stroke-linejoin:round;stroke-opacity:0.430041"
           d="m 199.82232,12.055969 q 0.12458,-0.44886 0.46948,-0.675427 0.35425,-0.223968 0.88726,-0.07603 0.53302,0.147944 0.72116,0.522454 0.19748,0.377106 0.0728,0.825966 -0.11939,0.430159 -0.4804,0.642182 -0.35164,0.21462 -0.88467,0.06667 -0.53301,-0.147943 -0.72375,-0.513102 -0.18137,-0.362564 -0.062,-0.792722 z m 8.94948,-6.1172043 q 1.54212,-1.0927916 3.38433,-0.5814753 3.20748,0.8902601 2.23107,4.5169843 l -1.8558,6.6861503 -1.72998,-0.480169 1.85838,-6.6955017 q 0.29435,-1.0966884 -0.056,-1.757926 -0.34091,-0.6586371 -1.3789,-0.9467388 -0.84162,-0.2335961 -1.60208,0.03877 -0.76048,0.2723646 -1.31827,0.9031337 l -2.00113,7.2098208 -1.73,-0.480171 3.98671,-14.36353429 1.72998,0.48017061 z m 12.59653,13.0744193 q -0.0665,-0.340767 0.0527,-1.133527 -1.55412,0.918245 -3.22798,0.45365 -1.4962,-0.415281 -2.22579,-1.524233 -0.71764,-1.115707 -0.35685,-2.415532 0.43864,-1.580361 1.87698,-2.117803 1.45029,-0.544198 3.62913,0.06055 l 1.68323,0.467192 0.22062,-0.794857 q 0.25176,-0.907073 -0.14267,-1.590633 -0.39183,-0.6929134 -1.44852,-0.9862072 -0.92578,-0.2569547 -1.68209,0.036709 -0.75631,0.2936641 -0.94059,0.9576032 l -1.73933,-0.482765 q 0.21023,-0.7574523 0.93791,-1.3108535 0.73964,-0.5601555 1.77027,-0.7172495 1.03997,-0.1545011 2.14343,0.1517712 1.74868,0.4853609 2.49593,1.6395039 0.74986,1.1447889 0.36161,2.6887789 l -1.29258,4.656928 q -0.38673,1.393336 -0.25979,2.314878 l -0.0415,0.149619 z m -2.50485,-2.115351 q 0.81356,0.225811 1.65975,0.0074 0.84619,-0.218356 1.36037,-0.800803 l 0.57621,-2.07598 -1.35594,-0.376348 q -3.17943,-0.882476 -3.69593,0.978425 -0.22582,0.813559 0.18938,1.422311 0.41519,0.608752 1.26616,0.844942 z m 11.11099,-6.393492 -0.26472,1.135125 q 1.47617,-1.00031 3.36513,-0.476017 2.12274,0.589182 2.43791,2.429132 0.70743,-0.58924 1.63622,-0.814885 0.93814,-0.223051 2.04158,0.08322 3.32907,0.924005 2.40666,4.465001 l -1.88175,6.779664 -1.72998,-0.480169 1.8532,-6.6768 q 0.30108,-1.084745 -0.0465,-1.755331 -0.34508,-0.679934 -1.51398,-1.004373 -0.9632,-0.267339 -1.76,0.135944 -0.79421,0.393931 -1.16701,1.337911 l -1.86358,6.714206 -1.73933,-0.482766 1.84021,-6.630044 q 0.61254,-2.206897 -1.54759,-2.80646 -1.70193,-0.472383 -2.73078,0.803162 l -2.05045,7.387496 -1.72997,-0.480171 2.80833,-10.118062 z m 14.22964,14.847087 -1.72997,-0.480169 3.98671,-14.363534 1.72998,0.480169 z"
           id="text19"
           aria-label=".haml" /><path
           style="fill:#3f3e29;fill-opacity:1;stroke:none;stroke-width:0.642505;stroke-linecap:round;stroke-linejoin:round;stroke-dasharray:none;stroke-opacity:0.430041"
           d="M 182.52194,-4.9497475 209.52292,-15.676541 267.0625,5.347495 246.74097,46.462322 186.10167,23.82066 249.43192,53.740116 270.95448,4.2868349 209.48038,-19.489631 179.21198,-7.0385124 185.70392,23.732271 Z"
           id="path21"
           sodipodi:nodetypes="ccccccccccc" /></g></g><rect
       style="fill:#eaeae1;fill-opacity:1;stroke:none;stroke-width:0.25;stroke-linecap:round;stroke-linejoin:round;stroke-opacity:0.430041"
       id="rect19"
       width="256"
       height="256"
       x="0"
       y="0"
       ry="73"
       rx="0" /><g
       id="g26"
       transform="matrix(1.0628469,0,0,1.0628469,-2.4451876,-8.3979911)"
       style="stroke-width:0.940869"><path
         d="m 122.73187,128.33268 -14.65875,104.6826 c 0,0 -23.900131,8.76338 -45.569585,-9.56006 L 86.244333,121.95932 41.471417,31.138809 c 0,0 17.686098,-7.488708 28.998828,-4.93936 l 39.355545,74.249741 68.19505,-57.997651 c 0,0 22.94414,7.96671 25.01548,15.614754 z"
         fill="#ecdfa7"
         id="path1"
         style="fill:#ea4b52;fill-opacity:1;stroke-width:0.940869" /><g
         fill="#3f3e29"
         id="g3"
         style="fill:#5a181b;fill-opacity:1;stroke-width:1.38687"
         transform="matrix(0.67841524,0,0,0.67841524,41.471417,20.890169)"><path
           d="m 251.77248,173.79816 c -1.64404,-3.28807 -3.7578,-6.34128 -6.10643,-9.15963 -4.69724,-5.40183 -10.33394,-9.86422 -16.44036,-13.38715 -5.87156,-3.7578 -12.44771,-6.81101 -19.02386,-8.92477 l -2.58348,-0.70459 c -0.70459,-0.23486 -1.40918,-0.46973 -2.11376,-0.70459 -1.40918,-0.46972 -2.58349,-1.17431 -3.7578,-1.64404 -2.34863,-1.40917 -3.99266,-2.81834 -5.16697,-4.69724 -2.34863,-3.52294 -2.58349,-8.92477 -1.40918,-14.56147 0.23486,-1.40918 0.70459,-2.81835 1.17431,-4.22752 0.46973,-1.40918 0.93945,-2.81835 1.40918,-4.46239 0.46972,-2.11376 0.70459,-4.22752 0.70459,-6.81101 l 1.17431,-0.93945 14.09174,-11.743117 c 2.58349,-2.113762 5.16697,-4.462386 7.75046,-6.576147 0.93945,0.469725 1.8789,1.174312 2.58349,1.644037 0,0 7.28073,0.704587 11.27339,-10.333945 l -2.11376,-1.409175 1.40917,-1.174312 3.52294,-3.053211 c 1.17431,-0.939449 2.11376,-2.113761 2.58348,-4.227523 -2.11376,-0.234862 -3.52293,0.469725 -4.69724,1.409175 l -3.7578,2.818348 -2.58349,1.878899 -32.41101,-22.311926 c 1.64404,-1.409175 3.05321,-2.583486 4.69725,-3.992661 l 6.81101,-6.106422 c 0.23486,-0.234862 0.46972,-0.469725 0.70459,-0.704587 0.70458,0.469725 1.17431,0.93945 1.8789,1.409174 1.64403,1.174312 3.52293,2.348624 5.16697,3.288074 l 10.33394,5.636697 c 3.28808,1.878899 6.81101,3.757798 10.33395,5.401835 1.64404,0.939449 3.52293,1.644037 5.40183,2.348624 0.93945,0.234862 1.8789,0.704587 2.81835,0.939449 0.46973,0 1.17431,0.234863 1.64404,0.234863 h 1.17431 c 0.46973,0 0.93945,-0.234863 1.40918,-0.93945 v -0.234862 c 0,-0.234863 0,-0.469725 0.23486,-0.704587 v -0.93945 c 0,-0.469725 -0.23486,-0.704587 -0.46973,-0.939449 -0.23486,-0.469725 -0.70458,-0.93945 -0.93945,-1.409175 -0.70458,-0.704587 -1.40917,-1.644037 -2.11376,-2.113761 -1.40917,-1.409175 -3.05321,-2.583487 -4.46238,-3.757798 -3.05321,-2.348624 -6.34129,-4.462386 -9.62936,-6.576147 -3.28807,-2.113762 -6.57615,-3.992661 -10.09908,-5.636697 -1.64404,-0.93945 -3.52294,-1.644037 -5.40184,-2.348624 -0.93945,-0.234863 -1.8789,-0.704587 -3.05321,-0.93945 -0.46972,0 -1.17431,-0.234862 -1.8789,-0.234862 -0.46972,0 -0.70459,0 -1.40917,0.234862 -0.46973,0.234863 -1.17432,0.469725 -1.8789,1.174312 -1.64404,0.704587 -3.05321,1.409174 -4.22753,2.348624 l -7.04587,3.99266 c -2.11376,1.644037 -4.46238,3.522936 -6.57614,5.166973 l -2.34863,-1.644037 c 0,0 -9.86422,0.93945 -6.57614,7.280734 0,0 0.23486,0.234863 0.93945,0.93945 -9.3945,7.750458 -18.55413,15.73578 -27.71377,23.486238 -9.39449,7.985321 -18.55412,15.970642 -27.94862,24.190826 l -13.85688,12.212841 c -0.70459,0.70459 -1.40918,1.40918 -2.34862,2.11376 -0.46973,-1.40917 -1.17432,-2.58348 -1.64404,-3.75779 l -3.28807,-7.04588 -6.341289,-14.091738 C 95.354128,79.383486 91.126605,69.988991 86.66422,60.594495 L 73.511927,32.645872 c -0.704588,-1.409175 -1.409175,-2.818349 -2.113762,-4.227523 h 2.818349 c 0,0 0.939449,-7.750459 -4.697248,-9.159633 0,0 -0.93945,0 -2.348624,0.234862 C 65.056881,15.266055 63.177982,11.038532 61.06422,6.8110092 L 60.124771,3.2880734 C 59.889908,2.1137615 59.185321,1.6440367 58.715596,1.1743119 58.245872,0.93944954 57.776147,0.70458716 57.541284,0.70458716 56.836697,0.46972477 56.366972,0.46972477 55.662385,0.23486239 54.488073,0 53.548624,0 52.609174,0 50.495413,0 48.616514,0.23486239 46.737615,0.46972477 42.979816,0.93944954 38.987156,1.6440367 35.229358,2.5834862 31.47156,3.5229358 27.713761,4.4623853 23.955963,5.6366972 22.077064,6.3412844 20.198165,6.8110092 18.554128,7.7504587 17.614679,8.2201835 16.675229,8.6899083 15.73578,9.159633 c -0.469725,0.2348624 -0.93945,0.7045872 -1.409175,0.93945 -0.234862,0.234862 -0.469724,0.469724 -0.704587,0.704587 -0.234862,0.234862 -0.234862,0.469724 -0.469724,0.704587 v 0.704587 0.234862 c 0.234862,0.93945 0.704587,1.174312 1.174311,1.409175 0.469725,0.234862 0.704588,0.469724 0.93945,0.469724 0.704587,0.234863 1.174312,0.234863 1.644037,0.469725 0.939449,0.234863 2.113761,0.234863 3.053211,0.234863 1.878899,0 3.99266,-0.234863 5.871559,-0.469725 3.757799,-0.469725 7.750459,-0.93945 11.508257,-1.644037 l 11.508257,-1.878899 c 1.878899,-0.234862 3.757798,-0.704587 5.87156,-1.1743118 1.644036,3.2880738 3.288073,6.8110088 4.93211,10.0990828 -10.80367,0.939449 -27.713762,2.348624 -38.282569,3.522935 -1.174312,-2.113761 -2.113761,-3.99266 -3.288073,-6.106422 -0.234863,-0.469724 -0.93945,-0.939449 -1.644037,-0.704587 -0.704587,0.234863 -0.93945,0.93945 -0.704587,1.644037 0.704587,1.878899 1.409174,3.522936 2.113761,5.401835 -3.288073,0.469725 -5.401835,0.939449 -5.636697,1.409174 -1.174312,2.113762 2.348624,13.152294 7.045872,15.970642 0,0 1.878899,-0.704587 5.166972,-1.409174 1.644037,3.757798 3.288073,7.515596 4.93211,11.273395 l 14.091743,31.941284 14.326606,31.941288 c 4.697247,10.5688 9.629358,21.13761 14.561468,31.94128 4.93211,10.80367 0,0.23486 0.234862,0.23486 -0.704587,2.34863 -1.409174,4.69725 -2.113761,7.04587 -1.8789,6.57615 -3.757799,13.1523 -5.636698,19.72844 -3.522935,13.1523 -6.811009,26.53945 -10.099082,39.69175 l -4.93211,19.9633 -4.697248,19.9633 c -3.288073,13.38716 -6.341284,26.53945 -10.099083,39.69175 0,0.23486 0,0.70458 0.234863,0.93945 1.878899,2.58348 4.462385,4.46238 6.811009,6.34128 2.583486,1.8789 5.166972,3.28807 7.750459,4.69725 5.401835,2.81835 11.038532,4.93211 16.910091,6.81101 5.87156,1.64403 11.977982,2.81835 18.319266,3.05321 3.053211,0.23486 6.341285,0 9.394496,-0.46973 3.053211,-0.46972 6.106421,-0.93945 9.394491,-1.87889 0.93945,-0.23487 1.64404,-1.17432 1.8789,-2.11377 v -0.23486 c 2.58349,-12.91743 4.69725,-26.06972 7.04587,-38.98715 l 6.57615,-39.22202 c 2.11376,-13.1523 4.46239,-26.06973 6.57615,-39.22202 0.23486,-1.40918 0.46972,-3.05321 0.70459,-4.46239 0.46972,0.46973 0.70458,1.17432 1.17431,1.64404 2.34862,2.81835 5.16697,5.16697 7.98532,7.28073 5.6367,3.99266 11.74312,7.04588 17.84954,9.3945 6.10642,2.34862 12.44771,4.22752 18.78899,5.6367 4.22752,0.93945 8.22018,1.64403 12.44771,2.11376 -1.8789,4.22752 -3.05321,8.68991 -2.81835,13.62202 0,0.46972 0.23486,0.93945 0.70459,1.17431 h 0.23486 c 4.46238,2.34862 9.15963,4.22752 14.3266,5.40183 4.93211,0.93945 10.33395,1.40918 15.50092,0.70459 5.40184,-0.70459 10.80367,-2.81835 15.03119,-6.34128 4.22753,-3.52294 7.28074,-8.22019 9.15964,-13.1523 l 0.23486,-0.23486 v -0.23486 c 0.23486,-2.11376 0.46972,-4.22753 0.70459,-6.34129 v -0.23486 c 2.34862,-1.40917 4.69724,-2.81835 7.04587,-4.69725 2.81835,-2.34862 5.40183,-4.93211 7.28073,-8.22018 1.8789,-3.28807 3.05321,-7.28073 2.81835,-11.27339 -0.23486,-3.7578 -1.64404,-7.5156 -3.28807,-10.80368 z M 247.31009,55.427523 c 0,0 0,0.234862 0,0 z M 230.63486,42.979817 c 3.28808,1.878899 6.34129,3.757798 9.3945,6.106422 1.40917,1.174312 3.05321,2.113761 4.46238,3.522935 0.70459,0.704588 1.40918,1.174312 1.8789,1.878899 0.23486,0.234863 0.23486,0.234863 0.46973,0.469725 h -0.46973 c -0.93945,-0.234862 -1.64403,-0.469725 -2.58348,-0.704587 -1.64404,-0.704587 -3.52294,-1.409174 -5.16698,-2.113761 -3.28807,-1.644037 -6.81101,-3.288074 -9.86422,-5.401835 -3.05321,-2.113762 -6.10642,-4.462386 -8.68991,-7.045872 -0.93944,-0.939449 -1.87889,-1.878899 -2.58348,-2.818348 1.17431,0.469724 2.34862,0.939449 3.52293,1.409174 3.05322,1.174312 6.34129,2.818348 9.62936,4.697248 z M 214.66422,32.645872 c 0,0 0,0 0.23486,0.234862 v 0.234862 0.234863 c 0,0 0,-0.234863 -0.23486,-0.234863 z M 47.207339,6.3412844 C 43.919266,7.9853211 40.161468,9.159633 36.638532,10.099083 32.880734,11.038532 29.357798,11.743119 25.6,11.977982 c -1.878899,0.234862 -3.757798,0.234862 -5.636697,0.234862 -0.93945,0 -1.878899,0 -2.583487,-0.234862 h -0.704587 c 0.234863,0 0.234863,-0.234863 0.469725,-0.234863 0.704587,-0.469724 1.644037,-0.704587 2.348624,-1.174312 1.644037,-0.7045868 3.522936,-1.1743116 5.166972,-1.8788987 3.522936,-0.9394496 7.280734,-1.8788991 11.038533,-2.5834863 3.757798,-0.7045871 7.515596,-1.1743119 11.038532,-1.4091743 1.174312,0 2.348623,0 3.522935,-0.2348624 -0.704587,0.7045872 -1.878899,1.174312 -3.053211,1.8788991 z M 210.20183,86.429358 195.64037,97.702752 181.0789,109.21101 c -3.99266,3.28807 -7.98532,6.57615 -11.97798,9.62936 0.23486,-0.23486 0.46972,-0.70459 0.70458,-0.93945 1.8789,-2.58349 3.7578,-4.93211 5.6367,-7.28074 3.99266,-4.69724 7.75046,-9.62935 11.97798,-14.09174 4.22753,-4.462385 8.68991,-8.92477 13.1523,-12.917431 2.34862,-2.113761 4.69725,-3.99266 7.28073,-5.636697 0.70459,-0.469725 1.40918,-0.93945 2.11376,-1.409174 2.11376,1.644036 4.46239,3.288073 6.57615,4.93211 -1.8789,1.644036 -4.22752,3.288073 -6.34129,4.93211 z M 38.047706,57.541284 l 1.174312,1.174312 c 2.348624,2.348624 4.697248,4.697248 6.576147,7.280734 1.878899,2.583487 3.522936,5.401835 4.227523,8.220184 0.469725,2.348624 0.469725,4.93211 -0.704587,7.045871 L 49.086238,80.557798 Z M 49.555963,81.966973 C 50.26055,81.262385 50.730275,80.322936 51.2,79.148624 51.904587,77.504587 51.904587,75.625688 51.669725,73.981651 51.2,70.458716 49.555963,67.170642 47.442202,64.587156 44.388991,60.594495 40.631193,57.306422 36.40367,54.488073 l -2.583487,-5.401834 c -1.644036,-3.522936 -3.288073,-7.045872 -5.166972,-10.333945 3.522936,-0.93945 7.750459,-2.348624 12.447706,-3.522936 4.227523,6.811009 7.985321,13.856881 11.508257,21.137615 3.992661,9.159633 7.985321,18.78899 8.689909,28.653211 0.234862,2.348623 0,4.93211 0,7.515596 0,2.583486 0,5.166972 0.234862,7.75046 0.234862,3.52293 0.939449,7.28073 1.644037,10.80367 z M 104.98349,273.37982 c -0.70459,0.93945 -1.17432,1.64403 -2.11377,2.34862 -1.17431,0.93945 -2.34862,1.40917 -3.757793,1.17431 -1.174312,-0.23486 -2.113762,-1.40917 -2.583487,-2.58348 -0.469724,-1.17432 -0.939449,-2.58349 -0.939449,-3.99266 -0.234863,-2.81835 -0.234863,-5.6367 0.469725,-8.45505 0.469724,-2.81835 1.409174,-5.40184 2.583486,-7.98532 0.704587,-1.17431 1.409178,-2.34863 2.348628,-3.28808 0.93944,-0.93944 2.11376,-1.64403 3.28807,-1.40917 1.17431,0 2.34862,1.17431 3.05321,2.34862 0.46972,0.70459 0.70459,1.40918 0.93945,2.11377 l -2.81835,16.67523 c -0.23486,1.17431 -0.23486,2.11376 -0.46972,3.05321 z m 13.85688,-81.02753 c -1.40918,8.22019 -2.81835,16.44037 -4.22753,24.66055 -0.23486,-1.64403 -0.70458,-3.28807 -1.17431,-4.93211 -1.17431,-4.46238 -2.58348,-8.6899 -3.99266,-12.91743 -3.05321,-8.45504 -6.57615,-16.67523 -10.803668,-24.42569 2.583488,8.68991 5.636698,16.9101 8.689908,25.36514 1.64404,4.22752 3.05321,8.45505 4.46238,12.44771 0.70459,2.11376 1.40918,4.22752 2.11377,6.34128 0,0.23487 0.23486,0.70459 0.23486,0.93945 -0.70459,3.7578 -1.40918,7.5156 -1.8789,11.50826 l -3.52294,21.37248 c -0.23486,-0.46973 -0.23486,-0.93945 -0.46972,-1.40918 -0.70459,-1.40917 -1.64404,-2.81835 -3.52294,-3.28807 -1.64403,-0.46973 -3.28807,0.46972 -4.69724,1.40917 -1.174316,0.93945 -2.113765,2.34863 -3.053215,3.52294 -1.644037,2.58348 -2.583486,5.6367 -3.053211,8.45504 -0.469725,3.05322 -0.704587,6.10643 0,9.15964 0.234862,1.40917 0.704587,3.05321 1.644037,4.46238 0.704587,1.40918 2.113761,2.81835 3.757798,3.05321 1.644041,0.23487 3.288071,-0.70458 4.227521,-1.8789 0.46973,-0.46972 0.93945,-1.17431 1.40918,-1.64403 -1.64404,11.03853 -3.52294,22.07706 -5.166976,33.35046 -2.113762,0.70458 -4.227523,1.17431 -6.341285,1.40917 -2.818348,0.46973 -5.636697,0.70459 -8.455046,0.93945 -5.871559,0.23486 -11.508256,-0.23486 -17.379816,-1.64404 -5.636697,-1.17431 -11.508257,-3.05321 -16.910092,-5.40183 -5.166972,-2.34862 -10.099082,-5.40184 -13.856881,-9.62936 3.522936,-12.91743 7.515597,-25.83486 11.508257,-38.75229 l 6.106422,-19.49358 5.87156,-19.72844 c 3.992661,-13.15229 7.985321,-26.30459 11.743119,-39.45688 1.878899,-6.57615 3.522936,-13.1523 5.401835,-19.72844 1.409174,-6.81101 4.227523,-13.1523 2.113762,-20.66789 v -0.23486 c -0.234863,-0.23487 -0.469725,-0.23487 -0.469725,0 -1.174312,1.17431 -1.878899,2.11376 -2.818349,3.28807 -2.583486,-5.87156 -5.401835,-11.50826 -7.985321,-17.37982 -0.704587,-2.11376 -1.409174,-4.22752 -1.878899,-6.57614 -1.174312,-4.93211 -2.113761,-9.86422 -2.348624,-14.79633 -0.234862,-2.58349 -0.234862,-4.932114 -0.234862,-7.5156 0,-2.583486 0.234862,-5.166973 0,-7.750459 -0.93945,-10.333945 -4.93211,-20.198165 -9.394496,-29.357798 -3.522935,-7.280734 -7.750458,-14.091743 -12.447706,-20.66789 7.750459,-2.113761 15.970642,-4.227523 22.546789,-5.401835 0.939449,2.113762 2.113761,3.992661 3.053211,6.106422 L 81.73211,63.177982 c 4.697248,9.159633 9.394495,18.319266 14.091743,27.478899 l 7.045867,13.622019 3.52294,6.81101 c 0.93945,1.40917 1.40917,3.05321 2.34862,4.22752 -3.05321,2.81835 -6.10642,5.6367 -9.159629,8.45505 -0.234862,0.23486 -0.469724,0.70458 0,1.17431 0.234863,0.46972 0.939449,0.46972 1.174309,0.23486 4.93211,-3.52293 9.86422,-7.28073 14.79633,-11.03853 l 14.79633,-11.2734 c 9.86422,-7.515592 19.49358,-15.031188 29.12294,-22.546784 9.62936,-7.515597 19.25871,-15.266055 28.88807,-23.016514 l 0.23486,-0.234862 c 5.16698,4.93211 12.91744,12.212844 21.13762,18.554128 -3.52294,1.878899 -6.81101,3.757798 -9.86422,6.106422 -4.93211,3.757798 -9.62936,7.985321 -13.85688,12.682569 -4.22752,4.697248 -8.22018,9.394491 -11.74312,14.561471 -2.58349,3.52293 -4.93211,7.28073 -7.28073,11.27339 -14.32661,11.74312 -28.41835,23.7211 -42.04037,36.16881 -0.46973,0.46972 -0.46973,1.17431 -0.23486,1.64403 0.46972,0.46973 1.17431,0.70459 1.64403,0.46973 -1.64403,4.69725 -2.58348,9.3945 -3.52293,14.09174 -1.40918,6.57615 -2.81835,13.1523 -3.99266,19.72844 z m 103.80917,31.47156 c -3.28807,2.58349 -7.28073,4.22753 -11.50826,5.16698 -4.22752,0.93944 -8.92477,0.93944 -13.38715,0.46972 -4.22752,-0.46972 -8.68991,-1.17431 -12.91743,-2.34862 -0.46973,-3.7578 0.23486,-7.98532 1.8789,-11.74312 1.64403,0.23486 3.05321,0.23486 4.69724,0.46972 0.70459,0 1.17432,-0.23486 1.40918,-0.93945 0.23486,-0.70458 0,-1.64403 -0.93945,-1.8789 -1.17431,-0.46972 -2.11376,-0.70458 -3.28808,-1.17431 0.93945,-1.64403 2.11377,-3.05321 3.28808,-4.46238 1.40917,-1.40918 2.81835,-2.81835 4.22752,-3.99266 3.05321,1.8789 6.10642,3.28807 9.62936,4.46238 3.99266,1.17431 8.22018,1.64404 12.68257,1.17431 4.22752,-0.46972 8.68991,-2.58348 11.50825,-6.10642 2.58349,-3.05321 3.7578,-6.57615 3.99267,-10.33394 0.46972,1.40917 0.46972,3.05321 0.23486,4.46238 -0.23486,1.8789 -0.46973,3.99266 -0.93945,5.87156 -0.23486,1.17431 -0.46973,2.34863 -0.70459,3.52294 -1.17431,0.70458 -2.34862,1.40917 -3.52293,2.11376 -1.40918,0.93945 -2.58349,1.8789 -3.7578,3.99266 2.11376,0.70459 3.7578,0.46972 5.40183,0 0.23486,0 0.23486,-0.23486 0.46973,-0.23486 -0.23486,0.70458 -0.23486,1.17431 -0.46973,1.8789 -1.8789,3.75779 -4.69725,7.04587 -7.98532,9.62935 z m 23.25138,-30.76697 c -1.17431,2.58349 -3.05321,4.93211 -5.16698,7.04587 -0.93945,0.93945 -2.11376,1.8789 -3.05321,2.58349 0,-2.11376 -0.23486,-4.22752 -0.70458,-6.34129 -0.23487,-1.17431 -0.46973,-2.11376 -0.93945,-3.28807 -0.46973,-0.93945 -0.93945,-2.11376 -2.11376,-2.81835 -0.23487,0 -0.46973,0 -0.46973,0.23486 -1.40917,3.52294 -3.7578,6.57615 -6.34128,8.68991 -2.58349,2.11376 -5.87156,3.05321 -9.15964,3.28808 -3.28807,0.23486 -6.81101,-0.46973 -10.33394,-1.40918 -3.52294,-0.93945 -7.04587,-2.11376 -10.56881,-3.28807 l -0.46972,-0.23486 c -0.70459,-0.23487 -1.64404,0 -2.11377,0.46972 -1.87889,2.34862 -3.28807,4.46239 -4.93211,6.81101 -1.17431,1.8789 -2.11376,3.52294 -3.05321,5.40183 -4.22752,-1.64403 -8.22018,-3.05321 -12.4477,-4.69724 -5.87156,-2.34863 -11.74312,-4.69725 -17.14496,-7.5156 -5.63669,-2.58349 -11.03853,-5.6367 -15.73578,-9.15963 -4.69724,-3.52294 -8.92477,-7.28074 -11.03853,-11.97798 v -0.23487 c -0.46972,-0.93945 -1.17431,-1.64403 -2.11376,-2.11376 0,-0.46972 0.23486,-1.17431 0.23486,-1.64403 0.70459,-5.6367 1.64404,-11.2734 1.17431,-17.14496 19.02386,-13.38715 37.57799,-27.4789 55.89725,-42.04037 -0.23486,0.70459 -0.46972,1.40918 -0.70459,2.11377 -1.17431,3.52293 -1.64403,7.51559 -1.64403,11.50825 0.23486,3.99266 1.40917,8.45505 3.99266,12.21285 2.58348,3.75779 6.10642,6.57614 9.62936,8.22018 1.8789,0.93945 3.75779,1.64404 5.40183,2.11376 0.93945,0.23486 1.8789,0.46973 2.81835,0.70459 l 2.34862,0.46972 c 6.10643,1.64404 11.97799,3.99266 17.37982,7.04587 5.40183,3.05322 10.56881,6.81101 14.79633,11.03854 4.22752,4.22752 7.5156,9.62935 7.98532,15.03119 0.23486,3.7578 -0.23486,6.57615 -1.40917,8.92477 z"
           id="path2"
           style="fill:#5a181b;fill-opacity:1;stroke-width:1.38687" /><path
           d="m 89.952294,247.07523 c -1.878899,2.58349 -3.288074,5.6367 -3.992661,8.68991 -0.469725,1.64403 -0.704587,3.28807 -0.704587,4.69724 l -0.234862,4.69725 c -0.469725,6.10642 -0.234863,12.68257 1.644036,18.78899 1.878899,6.10643 4.462386,11.74312 7.515597,17.14496 -0.93945,-3.05321 -2.113762,-5.87156 -3.053211,-8.68991 -0.93945,-2.81835 -1.8789,-5.87156 -2.583487,-8.92477 -1.409174,-5.87156 -1.409174,-11.97798 -1.174312,-18.08441 l 0.234863,-4.69724 c 0,-1.40918 0.234862,-3.05321 0.469725,-4.46239 0.704587,-2.81835 1.878899,-5.6367 3.288073,-8.22018 1.644037,-2.58349 3.522936,-4.93211 5.87156,-7.04587 2.113761,-2.11376 4.697252,-3.99266 7.515592,-5.40184 -5.871556,2.34863 -11.273391,6.10642 -14.796326,11.50826 z"
           id="path3"
           style="fill:#5a181b;fill-opacity:1;stroke-width:1.38687" /></g></g><g
       id="g24"
       transform="matrix(0.33920762,0,0,0.33920762,294.91797,166.70657)"
       style="stroke-width:2.94805"><path
         d="M 119.77982,158.37279 98.172477,312.67738 c 0,0 -35.229358,12.91743 -67.170642,-14.09174 L 65.99633,148.9783 0,15.106737 c 0,0 26.069725,-11.0385323 42.744954,-7.2807341 L 100.75596,117.27187 201.27706,31.781966 c 0,0 33.82019,11.743119 36.8734,23.016514 z"
         fill="#ecdfa7"
         id="path19"
         style="stroke-width:2.94805" /><g
         fill="#3f3e29"
         id="g23"
         style="stroke-width:2.94805"><path
           d="m 251.77248,173.79816 c -1.64404,-3.28807 -3.7578,-6.34128 -6.10643,-9.15963 -4.69724,-5.40183 -10.33394,-9.86422 -16.44036,-13.38715 -5.87156,-3.7578 -12.44771,-6.81101 -19.02386,-8.92477 l -2.58348,-0.70459 c -0.70459,-0.23486 -1.40918,-0.46973 -2.11376,-0.70459 -1.40918,-0.46972 -2.58349,-1.17431 -3.7578,-1.64404 -2.34863,-1.40917 -3.99266,-2.81834 -5.16697,-4.69724 -2.34863,-3.52294 -2.58349,-8.92477 -1.40918,-14.56147 0.23486,-1.40918 0.70459,-2.81835 1.17431,-4.22752 0.46973,-1.40918 0.93945,-2.81835 1.40918,-4.46239 0.46972,-2.11376 0.70459,-4.22752 0.70459,-6.81101 l 1.17431,-0.93945 14.09174,-11.743117 c 2.58349,-2.113762 5.16697,-4.462386 7.75046,-6.576147 0.93945,0.469725 1.8789,1.174312 2.58349,1.644037 0,0 7.28073,0.704587 11.27339,-10.333945 l -2.11376,-1.409175 1.40917,-1.174312 3.52294,-3.053211 c 1.17431,-0.939449 2.11376,-2.113761 2.58348,-4.227523 -2.11376,-0.234862 -3.52293,0.469725 -4.69724,1.409175 l -3.7578,2.818348 -2.58349,1.878899 -32.41101,-22.311926 c 1.64404,-1.409175 3.05321,-2.583486 4.69725,-3.992661 l 6.81101,-6.106422 c 0.23486,-0.234862 0.46972,-0.469725 0.70459,-0.704587 0.70458,0.469725 1.17431,0.93945 1.8789,1.409174 1.64403,1.174312 3.52293,2.348624 5.16697,3.288074 l 10.33394,5.636697 c 3.28808,1.878899 6.81101,3.757798 10.33395,5.401835 1.64404,0.939449 3.52293,1.644037 5.40183,2.348624 0.93945,0.234862 1.8789,0.704587 2.81835,0.939449 0.46973,0 1.17431,0.234863 1.64404,0.234863 h 1.17431 c 0.46973,0 0.93945,-0.234863 1.40918,-0.93945 v -0.234862 c 0,-0.234863 0,-0.469725 0.23486,-0.704587 v -0.93945 c 0,-0.469725 -0.23486,-0.704587 -0.46973,-0.939449 -0.23486,-0.469725 -0.70458,-0.93945 -0.93945,-1.409175 -0.70458,-0.704587 -1.40917,-1.644037 -2.11376,-2.113761 -1.40917,-1.409175 -3.05321,-2.583487 -4.46238,-3.757798 -3.05321,-2.348624 -6.34129,-4.462386 -9.62936,-6.576147 -3.28807,-2.113762 -6.57615,-3.992661 -10.09908,-5.636697 -1.64404,-0.93945 -3.52294,-1.644037 -5.40184,-2.348624 -0.93945,-0.234863 -1.8789,-0.704587 -3.05321,-0.93945 -0.46972,0 -1.17431,-0.234862 -1.8789,-0.234862 -0.46972,0 -0.70459,0 -1.40917,0.234862 -0.46973,0.234863 -1.17432,0.469725 -1.8789,1.174312 -1.64404,0.704587 -3.05321,1.409174 -4.22753,2.348624 l -7.04587,3.99266 c -2.11376,1.644037 -4.46238,3.522936 -6.57614,5.166973 l -2.34863,-1.644037 c 0,0 -9.86422,0.93945 -6.57614,7.280734 0,0 0.23486,0.234863 0.93945,0.93945 -9.3945,7.750458 -18.55413,15.73578 -27.71377,23.486238 -9.39449,7.985321 -18.55412,15.970642 -27.94862,24.190826 l -13.85688,12.212841 c -0.70459,0.70459 -1.40918,1.40918 -2.34862,2.11376 -0.46973,-1.40917 -1.17432,-2.58348 -1.64404,-3.75779 l -3.28807,-7.04588 -6.341289,-14.091738 C 95.354128,79.383486 91.126605,69.988991 86.66422,60.594495 L 73.511927,32.645872 c -0.704588,-1.409175 -1.409175,-2.818349 -2.113762,-4.227523 h 2.818349 c 0,0 0.939449,-7.750459 -4.697248,-9.159633 0,0 -0.93945,0 -2.348624,0.234862 C 65.056881,15.266055 63.177982,11.038532 61.06422,6.8110092 L 60.124771,3.2880734 C 59.889908,2.1137615 59.185321,1.6440367 58.715596,1.1743119 58.245872,0.93944954 57.776147,0.70458716 57.541284,0.70458716 56.836697,0.46972477 56.366972,0.46972477 55.662385,0.23486239 54.488073,0 53.548624,0 52.609174,0 50.495413,0 48.616514,0.23486239 46.737615,0.46972477 42.979816,0.93944954 38.987156,1.6440367 35.229358,2.5834862 31.47156,3.5229358 27.713761,4.4623853 23.955963,5.6366972 22.077064,6.3412844 20.198165,6.8110092 18.554128,7.7504587 17.614679,8.2201835 16.675229,8.6899083 15.73578,9.159633 c -0.469725,0.2348624 -0.93945,0.7045872 -1.409175,0.93945 -0.234862,0.234862 -0.469724,0.469724 -0.704587,0.704587 -0.234862,0.234862 -0.234862,0.469724 -0.469724,0.704587 v 0.704587 0.234862 c 0.234862,0.93945 0.704587,1.174312 1.174311,1.409175 0.469725,0.234862 0.704588,0.469724 0.93945,0.469724 0.704587,0.234863 1.174312,0.234863 1.644037,0.469725 0.939449,0.234863 2.113761,0.234863 3.053211,0.234863 1.878899,0 3.99266,-0.234863 5.871559,-0.469725 3.757799,-0.469725 7.750459,-0.93945 11.508257,-1.644037 l 11.508257,-1.878899 c 1.878899,-0.234862 3.757798,-0.704587 5.87156,-1.1743118 1.644036,3.2880738 3.288073,6.8110088 4.93211,10.0990828 -10.80367,0.939449 -27.713762,2.348624 -38.282569,3.522935 -1.174312,-2.113761 -2.113761,-3.99266 -3.288073,-6.106422 -0.234863,-0.469724 -0.93945,-0.939449 -1.644037,-0.704587 -0.704587,0.234863 -0.93945,0.93945 -0.704587,1.644037 0.704587,1.878899 1.409174,3.522936 2.113761,5.401835 -3.288073,0.469725 -5.401835,0.939449 -5.636697,1.409174 -1.174312,2.113762 2.348624,13.152294 7.045872,15.970642 0,0 1.878899,-0.704587 5.166972,-1.409174 1.644037,3.757798 3.288073,7.515596 4.93211,11.273395 l 14.091743,31.941284 14.326606,31.941288 c 4.697247,10.5688 9.629358,21.13761 14.561468,31.94128 4.93211,10.80367 0,0.23486 0.234862,0.23486 -0.704587,2.34863 -1.409174,4.69725 -2.113761,7.04587 -1.8789,6.57615 -3.757799,13.1523 -5.636698,19.72844 -3.522935,13.1523 -6.811009,26.53945 -10.099082,39.69175 l -4.93211,19.9633 -4.697248,19.9633 c -3.288073,13.38716 -6.341284,26.53945 -10.099083,39.69175 0,0.23486 0,0.70458 0.234863,0.93945 1.878899,2.58348 4.462385,4.46238 6.811009,6.34128 2.583486,1.8789 5.166972,3.28807 7.750459,4.69725 5.401835,2.81835 11.038532,4.93211 16.910091,6.81101 5.87156,1.64403 11.977982,2.81835 18.319266,3.05321 3.053211,0.23486 6.341285,0 9.394496,-0.46973 3.053211,-0.46972 6.106421,-0.93945 9.394491,-1.87889 0.93945,-0.23487 1.64404,-1.17432 1.8789,-2.11377 v -0.23486 c 2.58349,-12.91743 4.69725,-26.06972 7.04587,-38.98715 l 6.57615,-39.22202 c 2.11376,-13.1523 4.46239,-26.06973 6.57615,-39.22202 0.23486,-1.40918 0.46972,-3.05321 0.70459,-4.46239 0.46972,0.46973 0.70458,1.17432 1.17431,1.64404 2.34862,2.81835 5.16697,5.16697 7.98532,7.28073 5.6367,3.99266 11.74312,7.04588 17.84954,9.3945 6.10642,2.34862 12.44771,4.22752 18.78899,5.6367 4.22752,0.93945 8.22018,1.64403 12.44771,2.11376 -1.8789,4.22752 -3.05321,8.68991 -2.81835,13.62202 0,0.46972 0.23486,0.93945 0.70459,1.17431 h 0.23486 c 4.46238,2.34862 9.15963,4.22752 14.3266,5.40183 4.93211,0.93945 10.33395,1.40918 15.50092,0.70459 5.40184,-0.70459 10.80367,-2.81835 15.03119,-6.34128 4.22753,-3.52294 7.28074,-8.22019 9.15964,-13.1523 l 0.23486,-0.23486 v -0.23486 c 0.23486,-2.11376 0.46972,-4.22753 0.70459,-6.34129 v -0.23486 c 2.34862,-1.40917 4.69724,-2.81835 7.04587,-4.69725 2.81835,-2.34862 5.40183,-4.93211 7.28073,-8.22018 1.8789,-3.28807 3.05321,-7.28073 2.81835,-11.27339 -0.23486,-3.7578 -1.64404,-7.5156 -3.28807,-10.80368 z M 247.31009,55.427523 c 0,0 0,0.234862 0,0 z M 230.63486,42.979817 c 3.28808,1.878899 6.34129,3.757798 9.3945,6.106422 1.40917,1.174312 3.05321,2.113761 4.46238,3.522935 0.70459,0.704588 1.40918,1.174312 1.8789,1.878899 0.23486,0.234863 0.23486,0.234863 0.46973,0.469725 h -0.46973 c -0.93945,-0.234862 -1.64403,-0.469725 -2.58348,-0.704587 -1.64404,-0.704587 -3.52294,-1.409174 -5.16698,-2.113761 -3.28807,-1.644037 -6.81101,-3.288074 -9.86422,-5.401835 -3.05321,-2.113762 -6.10642,-4.462386 -8.68991,-7.045872 -0.93944,-0.939449 -1.87889,-1.878899 -2.58348,-2.818348 1.17431,0.469724 2.34862,0.939449 3.52293,1.409174 3.05322,1.174312 6.34129,2.818348 9.62936,4.697248 z M 214.66422,32.645872 c 0,0 0,0 0.23486,0.234862 v 0.234862 0.234863 c 0,0 0,-0.234863 -0.23486,-0.234863 z M 47.207339,6.3412844 C 43.919266,7.9853211 40.161468,9.159633 36.638532,10.099083 32.880734,11.038532 29.357798,11.743119 25.6,11.977982 c -1.878899,0.234862 -3.757798,0.234862 -5.636697,0.234862 -0.93945,0 -1.878899,0 -2.583487,-0.234862 h -0.704587 c 0.234863,0 0.234863,-0.234863 0.469725,-0.234863 0.704587,-0.469724 1.644037,-0.704587 2.348624,-1.174312 1.644037,-0.7045868 3.522936,-1.1743116 5.166972,-1.8788987 3.522936,-0.9394496 7.280734,-1.8788991 11.038533,-2.5834863 3.757798,-0.7045871 7.515596,-1.1743119 11.038532,-1.4091743 1.174312,0 2.348623,0 3.522935,-0.2348624 -0.704587,0.7045872 -1.878899,1.174312 -3.053211,1.8788991 z M 210.20183,86.429358 195.64037,97.702752 181.0789,109.21101 c -3.99266,3.28807 -7.98532,6.57615 -11.97798,9.62936 0.23486,-0.23486 0.46972,-0.70459 0.70458,-0.93945 1.8789,-2.58349 3.7578,-4.93211 5.6367,-7.28074 3.99266,-4.69724 7.75046,-9.62935 11.97798,-14.09174 4.22753,-4.462385 8.68991,-8.92477 13.1523,-12.917431 2.34862,-2.113761 4.69725,-3.99266 7.28073,-5.636697 0.70459,-0.469725 1.40918,-0.93945 2.11376,-1.409174 2.11376,1.644036 4.46239,3.288073 6.57615,4.93211 -1.8789,1.644036 -4.22752,3.288073 -6.34129,4.93211 z M 38.047706,57.541284 l 1.174312,1.174312 c 2.348624,2.348624 4.697248,4.697248 6.576147,7.280734 1.878899,2.583487 3.522936,5.401835 4.227523,8.220184 0.469725,2.348624 0.469725,4.93211 -0.704587,7.045871 L 49.086238,80.557798 Z M 49.555963,81.966973 C 50.26055,81.262385 50.730275,80.322936 51.2,79.148624 51.904587,77.504587 51.904587,75.625688 51.669725,73.981651 51.2,70.458716 49.555963,67.170642 47.442202,64.587156 44.388991,60.594495 40.631193,57.306422 36.40367,54.488073 l -2.583487,-5.401834 c -1.644036,-3.522936 -3.288073,-7.045872 -5.166972,-10.333945 3.522936,-0.93945 7.750459,-2.348624 12.447706,-3.522936 4.227523,6.811009 7.985321,13.856881 11.508257,21.137615 3.992661,9.159633 7.985321,18.78899 8.689909,28.653211 0.234862,2.348623 0,4.93211 0,7.515596 0,2.583486 0,5.166972 0.234862,7.75046 0.234862,3.52293 0.939449,7.28073 1.644037,10.80367 z M 104.98349,273.37982 c -0.70459,0.93945 -1.17432,1.64403 -2.11377,2.34862 -1.17431,0.93945 -2.34862,1.40917 -3.757793,1.17431 -1.174312,-0.23486 -2.113762,-1.40917 -2.583487,-2.58348 -0.469724,-1.17432 -0.939449,-2.58349 -0.939449,-3.99266 -0.234863,-2.81835 -0.234863,-5.6367 0.469725,-8.45505 0.469724,-2.81835 1.409174,-5.40184 2.583486,-7.98532 0.704587,-1.17431 1.409178,-2.34863 2.348628,-3.28808 0.93944,-0.93944 2.11376,-1.64403 3.28807,-1.40917 1.17431,0 2.34862,1.17431 3.05321,2.34862 0.46972,0.70459 0.70459,1.40918 0.93945,2.11377 l -2.81835,16.67523 c -0.23486,1.17431 -0.23486,2.11376 -0.46972,3.05321 z m 13.85688,-81.02753 c -1.40918,8.22019 -2.81835,16.44037 -4.22753,24.66055 -0.23486,-1.64403 -0.70458,-3.28807 -1.17431,-4.93211 -1.17431,-4.46238 -2.58348,-8.6899 -3.99266,-12.91743 -3.05321,-8.45504 -6.57615,-16.67523 -10.803668,-24.42569 2.583488,8.68991 5.636698,16.9101 8.689908,25.36514 1.64404,4.22752 3.05321,8.45505 4.46238,12.44771 0.70459,2.11376 1.40918,4.22752 2.11377,6.34128 0,0.23487 0.23486,0.70459 0.23486,0.93945 -0.70459,3.7578 -1.40918,7.5156 -1.8789,11.50826 l -3.52294,21.37248 c -0.23486,-0.46973 -0.23486,-0.93945 -0.46972,-1.40918 -0.70459,-1.40917 -1.64404,-2.81835 -3.52294,-3.28807 -1.64403,-0.46973 -3.28807,0.46972 -4.69724,1.40917 -1.174316,0.93945 -2.113765,2.34863 -3.053215,3.52294 -1.644037,2.58348 -2.583486,5.6367 -3.053211,8.45504 -0.469725,3.05322 -0.704587,6.10643 0,9.15964 0.234862,1.40917 0.704587,3.05321 1.644037,4.46238 0.704587,1.40918 2.113761,2.81835 3.757798,3.05321 1.644041,0.23487 3.288071,-0.70458 4.227521,-1.8789 0.46973,-0.46972 0.93945,-1.17431 1.40918,-1.64403 -1.64404,11.03853 -3.52294,22.07706 -5.166976,33.35046 -2.113762,0.70458 -4.227523,1.17431 -6.341285,1.40917 -2.818348,0.46973 -5.636697,0.70459 -8.455046,0.93945 -5.871559,0.23486 -11.508256,-0.23486 -17.379816,-1.64404 -5.636697,-1.17431 -11.508257,-3.05321 -16.910092,-5.40183 -5.166972,-2.34862 -10.099082,-5.40184 -13.856881,-9.62936 3.522936,-12.91743 7.515597,-25.83486 11.508257,-38.75229 l 6.106422,-19.49358 5.87156,-19.72844 c 3.992661,-13.15229 7.985321,-26.30459 11.743119,-39.45688 1.878899,-6.57615 3.522936,-13.1523 5.401835,-19.72844 1.409174,-6.81101 4.227523,-13.1523 2.113762,-20.66789 v -0.23486 c -0.234863,-0.23487 -0.469725,-0.23487 -0.469725,0 -1.174312,1.17431 -1.878899,2.11376 -2.818349,3.28807 -2.583486,-5.87156 -5.401835,-11.50826 -7.985321,-17.37982 -0.704587,-2.11376 -1.409174,-4.22752 -1.878899,-6.57614 -1.174312,-4.93211 -2.113761,-9.86422 -2.348624,-14.79633 -0.234862,-2.58349 -0.234862,-4.932114 -0.234862,-7.5156 0,-2.583486 0.234862,-5.166973 0,-7.750459 -0.93945,-10.333945 -4.93211,-20.198165 -9.394496,-29.357798 -3.522935,-7.280734 -7.750458,-14.091743 -12.447706,-20.66789 7.750459,-2.113761 15.970642,-4.227523 22.546789,-5.401835 0.939449,2.113762 2.113761,3.992661 3.053211,6.106422 L 81.73211,63.177982 c 4.697248,9.159633 9.394495,18.319266 14.091743,27.478899 l 7.045867,13.622019 3.52294,6.81101 c 0.93945,1.40917 1.40917,3.05321 2.34862,4.22752 -3.05321,2.81835 -6.10642,5.6367 -9.159629,8.45505 -0.234862,0.23486 -0.469724,0.70458 0,1.17431 0.234863,0.46972 0.939449,0.46972 1.174309,0.23486 4.93211,-3.52293 9.86422,-7.28073 14.79633,-11.03853 l 14.79633,-11.2734 c 9.86422,-7.515592 19.49358,-15.031188 29.12294,-22.546784 9.62936,-7.515597 19.25871,-15.266055 28.88807,-23.016514 l 0.23486,-0.234862 c 5.16698,4.93211 12.91744,12.212844 21.13762,18.554128 -3.52294,1.878899 -6.81101,3.757798 -9.86422,6.106422 -4.93211,3.757798 -9.62936,7.985321 -13.85688,12.682569 -4.22752,4.697248 -8.22018,9.394491 -11.74312,14.561471 -2.58349,3.52293 -4.93211,7.28073 -7.28073,11.27339 -14.32661,11.74312 -28.41835,23.7211 -42.04037,36.16881 -0.46973,0.46972 -0.46973,1.17431 -0.23486,1.64403 0.46972,0.46973 1.17431,0.70459 1.64403,0.46973 -1.64403,4.69725 -2.58348,9.3945 -3.52293,14.09174 -1.40918,6.57615 -2.81835,13.1523 -3.99266,19.72844 z m 103.80917,31.47156 c -3.28807,2.58349 -7.28073,4.22753 -11.50826,5.16698 -4.22752,0.93944 -8.92477,0.93944 -13.38715,0.46972 -4.22752,-0.46972 -8.68991,-1.17431 -12.91743,-2.34862 -0.46973,-3.7578 0.23486,-7.98532 1.8789,-11.74312 1.64403,0.23486 3.05321,0.23486 4.69724,0.46972 0.70459,0 1.17432,-0.23486 1.40918,-0.93945 0.23486,-0.70458 0,-1.64403 -0.93945,-1.8789 -1.17431,-0.46972 -2.11376,-0.70458 -3.28808,-1.17431 0.93945,-1.64403 2.11377,-3.05321 3.28808,-4.46238 1.40917,-1.40918 2.81835,-2.81835 4.22752,-3.99266 3.05321,1.8789 6.10642,3.28807 9.62936,4.46238 3.99266,1.17431 8.22018,1.64404 12.68257,1.17431 4.22752,-0.46972 8.68991,-2.58348 11.50825,-6.10642 2.58349,-3.05321 3.7578,-6.57615 3.99267,-10.33394 0.46972,1.40917 0.46972,3.05321 0.23486,4.46238 -0.23486,1.8789 -0.46973,3.99266 -0.93945,5.87156 -0.23486,1.17431 -0.46973,2.34863 -0.70459,3.52294 -1.17431,0.70458 -2.34862,1.40917 -3.52293,2.11376 -1.40918,0.93945 -2.58349,1.8789 -3.7578,3.99266 2.11376,0.70459 3.7578,0.46972 5.40183,0 0.23486,0 0.23486,-0.23486 0.46973,-0.23486 -0.23486,0.70458 -0.23486,1.17431 -0.46973,1.8789 -1.8789,3.75779 -4.69725,7.04587 -7.98532,9.62935 z m 23.25138,-30.76697 c -1.17431,2.58349 -3.05321,4.93211 -5.16698,7.04587 -0.93945,0.93945 -2.11376,1.8789 -3.05321,2.58349 0,-2.11376 -0.23486,-4.22752 -0.70458,-6.34129 -0.23487,-1.17431 -0.46973,-2.11376 -0.93945,-3.28807 -0.46973,-0.93945 -0.93945,-2.11376 -2.11376,-2.81835 -0.23487,0 -0.46973,0 -0.46973,0.23486 -1.40917,3.52294 -3.7578,6.57615 -6.34128,8.68991 -2.58349,2.11376 -5.87156,3.05321 -9.15964,3.28808 -3.28807,0.23486 -6.81101,-0.46973 -10.33394,-1.40918 -3.52294,-0.93945 -7.04587,-2.11376 -10.56881,-3.28807 l -0.46972,-0.23486 c -0.70459,-0.23487 -1.64404,0 -2.11377,0.46972 -1.87889,2.34862 -3.28807,4.46239 -4.93211,6.81101 -1.17431,1.8789 -2.11376,3.52294 -3.05321,5.40183 -4.22752,-1.64403 -8.22018,-3.05321 -12.4477,-4.69724 -5.87156,-2.34863 -11.74312,-4.69725 -17.14496,-7.5156 -5.63669,-2.58349 -11.03853,-5.6367 -15.73578,-9.15963 -4.69724,-3.52294 -8.92477,-7.28074 -11.03853,-11.97798 v -0.23487 c -0.46972,-0.93945 -1.17431,-1.64403 -2.11376,-2.11376 0,-0.46972 0.23486,-1.17431 0.23486,-1.64403 0.70459,-5.6367 1.64404,-11.2734 1.17431,-17.14496 19.02386,-13.38715 37.57799,-27.4789 55.89725,-42.04037 -0.23486,0.70459 -0.46972,1.40918 -0.70459,2.11377 -1.17431,3.52293 -1.64403,7.51559 -1.64403,11.50825 0.23486,3.99266 1.40917,8.45505 3.99266,12.21285 2.58348,3.75779 6.10642,6.57614 9.62936,8.22018 1.8789,0.93945 3.75779,1.64404 5.40183,2.11376 0.93945,0.23486 1.8789,0.46973 2.81835,0.70459 l 2.34862,0.46972 c 6.10643,1.64404 11.97799,3.99266 17.37982,7.04587 5.40183,3.05322 10.56881,6.81101 14.79633,11.03854 4.22752,4.22752 7.5156,9.62935 7.98532,15.03119 0.23486,3.7578 -0.23486,6.57615 -1.40917,8.92477 z"
           id="path22"
           style="stroke-width:2.94805" /><path
           d="m 89.952294,247.07523 c -1.878899,2.58349 -3.288074,5.6367 -3.992661,8.68991 -0.469725,1.64403 -0.704587,3.28807 -0.704587,4.69724 l -0.234862,4.69725 c -0.469725,6.10642 -0.234863,12.68257 1.644036,18.78899 1.878899,6.10643 4.462386,11.74312 7.515597,17.14496 -0.93945,-3.05321 -2.113762,-5.87156 -3.053211,-8.68991 -0.93945,-2.81835 -1.8789,-5.87156 -2.583487,-8.92477 -1.409174,-5.87156 -1.409174,-11.97798 -1.174312,-18.08441 l 0.234863,-4.69724 c 0,-1.40918 0.234862,-3.05321 0.469725,-4.46239 0.704587,-2.81835 1.878899,-5.6367 3.288073,-8.22018 1.644037,-2.58349 3.522936,-4.93211 5.87156,-7.04587 2.113761,-2.11376 4.697252,-3.99266 7.515592,-5.40184 -5.871556,2.34863 -11.273391,6.10642 -14.796326,11.50826 z"
           id="path23"
           style="stroke-width:2.94805" /></g></g></g></svg>
