<?xml version="1.0" encoding="UTF-8" standalone="no"?>
<!-- Created with Inkscape (http://www.inkscape.org/) -->

<svg
   width="128"
   height="128"
   viewBox="0 0 128 128"
   version="1.1"
   id="svg1"
   xml:space="preserve"
   inkscape:version="1.4 (e7c3feb100, 2024-10-09)"
   sodipodi:docname="icon.svg"
   xmlns:inkscape="http://www.inkscape.org/namespaces/inkscape"
   xmlns:sodipodi="http://sodipodi.sourceforge.net/DTD/sodipodi-0.dtd"
   xmlns="http://www.w3.org/2000/svg"
   xmlns:svg="http://www.w3.org/2000/svg"><sodipodi:namedview
     id="namedview1"
     pagecolor="#ffffff"
     bordercolor="#000000"
     borderopacity="0.25"
     inkscape:showpageshadow="2"
     inkscape:pageopacity="0.0"
     inkscape:pagecheckerboard="0"
     inkscape:deskcolor="#d1d1d1"
     inkscape:document-units="px"
     inkscape:zoom="5.4930722"
     inkscape:cx="62.897408"
     inkscape:cy="66.902453"
     inkscape:window-width="1920"
     inkscape:window-height="1003"
     inkscape:window-x="0"
     inkscape:window-y="0"
     inkscape:window-maximized="1"
     inkscape:current-layer="layer1" /><defs
     id="defs1" /><g
     inkscape:label="Camada 1"
     inkscape:groupmode="layer"
     id="layer1"><g
       id="g1"
       transform="matrix(0.38002969,0,0,0.38002969,15.529051,3.9999994)"
       style="stroke-width:2.63137"><path
         d="M 119.77982,158.37279 98.172477,312.67738 c 0,0 -35.229358,12.91743 -67.170642,-14.09174 L 65.99633,148.9783 0,15.106737 c 0,0 26.069725,-11.0385323 42.744954,-7.2807341 L 100.75596,117.27187 201.27706,31.781966 c 0,0 33.82019,11.743119 36.8734,23.016514 z"
         fill="#ecdfa7"
         id="path1"
         style="stroke-width:2.63137" /><g
         fill="#3f3e29"
         id="g3"
         style="stroke-width:2.63137"><path
           d="m 251.77248,173.79816 c -1.64404,-3.28807 -3.7578,-6.34128 -6.10643,-9.15963 -4.69724,-5.40183 -10.33394,-9.86422 -16.44036,-13.38715 -5.87156,-3.7578 -12.44771,-6.81101 -19.02386,-8.92477 l -2.58348,-0.70459 c -0.70459,-0.23486 -1.40918,-0.46973 -2.11376,-0.70459 -1.40918,-0.46972 -2.58349,-1.17431 -3.7578,-1.64404 -2.34863,-1.40917 -3.99266,-2.81834 -5.16697,-4.69724 -2.34863,-3.52294 -2.58349,-8.92477 -1.40918,-14.56147 0.23486,-1.40918 0.70459,-2.81835 1.17431,-4.22752 0.46973,-1.40918 0.93945,-2.81835 1.40918,-4.46239 0.46972,-2.11376 0.70459,-4.22752 0.70459,-6.81101 l 1.17431,-0.93945 14.09174,-11.743117 c 2.58349,-2.113762 5.16697,-4.462386 7.75046,-6.576147 0.93945,0.469725 1.8789,1.174312 2.58349,1.644037 0,0 7.28073,0.704587 11.27339,-10.333945 l -2.11376,-1.409175 1.40917,-1.174312 3.52294,-3.053211 c 1.17431,-0.939449 2.11376,-2.113761 2.58348,-4.227523 -2.11376,-0.234862 -3.52293,0.469725 -4.69724,1.409175 l -3.7578,2.818348 -2.58349,1.878899 -32.41101,-22.311926 c 1.64404,-1.409175 3.05321,-2.583486 4.69725,-3.992661 l 6.81101,-6.106422 c 0.23486,-0.234862 0.46972,-0.469725 0.70459,-0.704587 0.70458,0.469725 1.17431,0.93945 1.8789,1.409174 1.64403,1.174312 3.52293,2.348624 5.16697,3.288074 l 10.33394,5.636697 c 3.28808,1.878899 6.81101,3.757798 10.33395,5.401835 1.64404,0.939449 3.52293,1.644037 5.40183,2.348624 0.93945,0.234862 1.8789,0.704587 2.81835,0.939449 0.46973,0 1.17431,0.234863 1.64404,0.234863 h 1.17431 c 0.46973,0 0.93945,-0.234863 1.40918,-0.93945 v -0.234862 c 0,-0.234863 0,-0.469725 0.23486,-0.704587 v -0.93945 c 0,-0.469725 -0.23486,-0.704587 -0.46973,-0.939449 -0.23486,-0.469725 -0.70458,-0.93945 -0.93945,-1.409175 -0.70458,-0.704587 -1.40917,-1.644037 -2.11376,-2.113761 -1.40917,-1.409175 -3.05321,-2.583487 -4.46238,-3.757798 -3.05321,-2.348624 -6.34129,-4.462386 -9.62936,-6.576147 -3.28807,-2.113762 -6.57615,-3.992661 -10.09908,-5.636697 -1.64404,-0.93945 -3.52294,-1.644037 -5.40184,-2.348624 -0.93945,-0.234863 -1.8789,-0.704587 -3.05321,-0.93945 -0.46972,0 -1.17431,-0.234862 -1.8789,-0.234862 -0.46972,0 -0.70459,0 -1.40917,0.234862 -0.46973,0.234863 -1.17432,0.469725 -1.8789,1.174312 -1.64404,0.704587 -3.05321,1.409174 -4.22753,2.348624 l -7.04587,3.99266 c -2.11376,1.644037 -4.46238,3.522936 -6.57614,5.166973 l -2.34863,-1.644037 c 0,0 -9.86422,0.93945 -6.57614,7.280734 0,0 0.23486,0.234863 0.93945,0.93945 -9.3945,7.750458 -18.55413,15.73578 -27.71377,23.486238 -9.39449,7.985321 -18.55412,15.970642 -27.94862,24.190826 l -13.85688,12.212841 c -0.70459,0.70459 -1.40918,1.40918 -2.34862,2.11376 -0.46973,-1.40917 -1.17432,-2.58348 -1.64404,-3.75779 l -3.28807,-7.04588 -6.341289,-14.091738 C 95.354128,79.383486 91.126605,69.988991 86.66422,60.594495 L 73.511927,32.645872 c -0.704588,-1.409175 -1.409175,-2.818349 -2.113762,-4.227523 h 2.818349 c 0,0 0.939449,-7.750459 -4.697248,-9.159633 0,0 -0.93945,0 -2.348624,0.234862 C 65.056881,15.266055 63.177982,11.038532 61.06422,6.8110092 L 60.124771,3.2880734 C 59.889908,2.1137615 59.185321,1.6440367 58.715596,1.1743119 58.245872,0.93944954 57.776147,0.70458716 57.541284,0.70458716 56.836697,0.46972477 56.366972,0.46972477 55.662385,0.23486239 54.488073,0 53.548624,0 52.609174,0 50.495413,0 48.616514,0.23486239 46.737615,0.46972477 42.979816,0.93944954 38.987156,1.6440367 35.229358,2.5834862 31.47156,3.5229358 27.713761,4.4623853 23.955963,5.6366972 22.077064,6.3412844 20.198165,6.8110092 18.554128,7.7504587 17.614679,8.2201835 16.675229,8.6899083 15.73578,9.159633 c -0.469725,0.2348624 -0.93945,0.7045872 -1.409175,0.93945 -0.234862,0.234862 -0.469724,0.469724 -0.704587,0.704587 -0.234862,0.234862 -0.234862,0.469724 -0.469724,0.704587 v 0.704587 0.234862 c 0.234862,0.93945 0.704587,1.174312 1.174311,1.409175 0.469725,0.234862 0.704588,0.469724 0.93945,0.469724 0.704587,0.234863 1.174312,0.234863 1.644037,0.469725 0.939449,0.234863 2.113761,0.234863 3.053211,0.234863 1.878899,0 3.99266,-0.234863 5.871559,-0.469725 3.757799,-0.469725 7.750459,-0.93945 11.508257,-1.644037 l 11.508257,-1.878899 c 1.878899,-0.234862 3.757798,-0.704587 5.87156,-1.1743118 1.644036,3.2880738 3.288073,6.8110088 4.93211,10.0990828 -10.80367,0.939449 -27.713762,2.348624 -38.282569,3.522935 -1.174312,-2.113761 -2.113761,-3.99266 -3.288073,-6.106422 -0.234863,-0.469724 -0.93945,-0.939449 -1.644037,-0.704587 -0.704587,0.234863 -0.93945,0.93945 -0.704587,1.644037 0.704587,1.878899 1.409174,3.522936 2.113761,5.401835 -3.288073,0.469725 -5.401835,0.939449 -5.636697,1.409174 -1.174312,2.113762 2.348624,13.152294 7.045872,15.970642 0,0 1.878899,-0.704587 5.166972,-1.409174 1.644037,3.757798 3.288073,7.515596 4.93211,11.273395 l 14.091743,31.941284 14.326606,31.941288 c 4.697247,10.5688 9.629358,21.13761 14.561468,31.94128 4.93211,10.80367 0,0.23486 0.234862,0.23486 -0.704587,2.34863 -1.409174,4.69725 -2.113761,7.04587 -1.8789,6.57615 -3.757799,13.1523 -5.636698,19.72844 -3.522935,13.1523 -6.811009,26.53945 -10.099082,39.69175 l -4.93211,19.9633 -4.697248,19.9633 c -3.288073,13.38716 -6.341284,26.53945 -10.099083,39.69175 0,0.23486 0,0.70458 0.234863,0.93945 1.878899,2.58348 4.462385,4.46238 6.811009,6.34128 2.583486,1.8789 5.166972,3.28807 7.750459,4.69725 5.401835,2.81835 11.038532,4.93211 16.910091,6.81101 5.87156,1.64403 11.977982,2.81835 18.319266,3.05321 3.053211,0.23486 6.341285,0 9.394496,-0.46973 3.053211,-0.46972 6.106421,-0.93945 9.394491,-1.87889 0.93945,-0.23487 1.64404,-1.17432 1.8789,-2.11377 v -0.23486 c 2.58349,-12.91743 4.69725,-26.06972 7.04587,-38.98715 l 6.57615,-39.22202 c 2.11376,-13.1523 4.46239,-26.06973 6.57615,-39.22202 0.23486,-1.40918 0.46972,-3.05321 0.70459,-4.46239 0.46972,0.46973 0.70458,1.17432 1.17431,1.64404 2.34862,2.81835 5.16697,5.16697 7.98532,7.28073 5.6367,3.99266 11.74312,7.04588 17.84954,9.3945 6.10642,2.34862 12.44771,4.22752 18.78899,5.6367 4.22752,0.93945 8.22018,1.64403 12.44771,2.11376 -1.8789,4.22752 -3.05321,8.68991 -2.81835,13.62202 0,0.46972 0.23486,0.93945 0.70459,1.17431 h 0.23486 c 4.46238,2.34862 9.15963,4.22752 14.3266,5.40183 4.93211,0.93945 10.33395,1.40918 15.50092,0.70459 5.40184,-0.70459 10.80367,-2.81835 15.03119,-6.34128 4.22753,-3.52294 7.28074,-8.22019 9.15964,-13.1523 l 0.23486,-0.23486 v -0.23486 c 0.23486,-2.11376 0.46972,-4.22753 0.70459,-6.34129 v -0.23486 c 2.34862,-1.40917 4.69724,-2.81835 7.04587,-4.69725 2.81835,-2.34862 5.40183,-4.93211 7.28073,-8.22018 1.8789,-3.28807 3.05321,-7.28073 2.81835,-11.27339 -0.23486,-3.7578 -1.64404,-7.5156 -3.28807,-10.80368 z M 247.31009,55.427523 c 0,0 0,0.234862 0,0 z M 230.63486,42.979817 c 3.28808,1.878899 6.34129,3.757798 9.3945,6.106422 1.40917,1.174312 3.05321,2.113761 4.46238,3.522935 0.70459,0.704588 1.40918,1.174312 1.8789,1.878899 0.23486,0.234863 0.23486,0.234863 0.46973,0.469725 h -0.46973 c -0.93945,-0.234862 -1.64403,-0.469725 -2.58348,-0.704587 -1.64404,-0.704587 -3.52294,-1.409174 -5.16698,-2.113761 -3.28807,-1.644037 -6.81101,-3.288074 -9.86422,-5.401835 -3.05321,-2.113762 -6.10642,-4.462386 -8.68991,-7.045872 -0.93944,-0.939449 -1.87889,-1.878899 -2.58348,-2.818348 1.17431,0.469724 2.34862,0.939449 3.52293,1.409174 3.05322,1.174312 6.34129,2.818348 9.62936,4.697248 z M 214.66422,32.645872 c 0,0 0,0 0.23486,0.234862 v 0.234862 0.234863 c 0,0 0,-0.234863 -0.23486,-0.234863 z M 47.207339,6.3412844 C 43.919266,7.9853211 40.161468,9.159633 36.638532,10.099083 32.880734,11.038532 29.357798,11.743119 25.6,11.977982 c -1.878899,0.234862 -3.757798,0.234862 -5.636697,0.234862 -0.93945,0 -1.878899,0 -2.583487,-0.234862 h -0.704587 c 0.234863,0 0.234863,-0.234863 0.469725,-0.234863 0.704587,-0.469724 1.644037,-0.704587 2.348624,-1.174312 1.644037,-0.7045868 3.522936,-1.1743116 5.166972,-1.8788987 3.522936,-0.9394496 7.280734,-1.8788991 11.038533,-2.5834863 3.757798,-0.7045871 7.515596,-1.1743119 11.038532,-1.4091743 1.174312,0 2.348623,0 3.522935,-0.2348624 -0.704587,0.7045872 -1.878899,1.174312 -3.053211,1.8788991 z M 210.20183,86.429358 195.64037,97.702752 181.0789,109.21101 c -3.99266,3.28807 -7.98532,6.57615 -11.97798,9.62936 0.23486,-0.23486 0.46972,-0.70459 0.70458,-0.93945 1.8789,-2.58349 3.7578,-4.93211 5.6367,-7.28074 3.99266,-4.69724 7.75046,-9.62935 11.97798,-14.09174 4.22753,-4.462385 8.68991,-8.92477 13.1523,-12.917431 2.34862,-2.113761 4.69725,-3.99266 7.28073,-5.636697 0.70459,-0.469725 1.40918,-0.93945 2.11376,-1.409174 2.11376,1.644036 4.46239,3.288073 6.57615,4.93211 -1.8789,1.644036 -4.22752,3.288073 -6.34129,4.93211 z M 38.047706,57.541284 l 1.174312,1.174312 c 2.348624,2.348624 4.697248,4.697248 6.576147,7.280734 1.878899,2.583487 3.522936,5.401835 4.227523,8.220184 0.469725,2.348624 0.469725,4.93211 -0.704587,7.045871 L 49.086238,80.557798 Z M 49.555963,81.966973 C 50.26055,81.262385 50.730275,80.322936 51.2,79.148624 51.904587,77.504587 51.904587,75.625688 51.669725,73.981651 51.2,70.458716 49.555963,67.170642 47.442202,64.587156 44.388991,60.594495 40.631193,57.306422 36.40367,54.488073 l -2.583487,-5.401834 c -1.644036,-3.522936 -3.288073,-7.045872 -5.166972,-10.333945 3.522936,-0.93945 7.750459,-2.348624 12.447706,-3.522936 4.227523,6.811009 7.985321,13.856881 11.508257,21.137615 3.992661,9.159633 7.985321,18.78899 8.689909,28.653211 0.234862,2.348623 0,4.93211 0,7.515596 0,2.583486 0,5.166972 0.234862,7.75046 0.234862,3.52293 0.939449,7.28073 1.644037,10.80367 z M 104.98349,273.37982 c -0.70459,0.93945 -1.17432,1.64403 -2.11377,2.34862 -1.17431,0.93945 -2.34862,1.40917 -3.757793,1.17431 -1.174312,-0.23486 -2.113762,-1.40917 -2.583487,-2.58348 -0.469724,-1.17432 -0.939449,-2.58349 -0.939449,-3.99266 -0.234863,-2.81835 -0.234863,-5.6367 0.469725,-8.45505 0.469724,-2.81835 1.409174,-5.40184 2.583486,-7.98532 0.704587,-1.17431 1.409178,-2.34863 2.348628,-3.28808 0.93944,-0.93944 2.11376,-1.64403 3.28807,-1.40917 1.17431,0 2.34862,1.17431 3.05321,2.34862 0.46972,0.70459 0.70459,1.40918 0.93945,2.11377 l -2.81835,16.67523 c -0.23486,1.17431 -0.23486,2.11376 -0.46972,3.05321 z m 13.85688,-81.02753 c -1.40918,8.22019 -2.81835,16.44037 -4.22753,24.66055 -0.23486,-1.64403 -0.70458,-3.28807 -1.17431,-4.93211 -1.17431,-4.46238 -2.58348,-8.6899 -3.99266,-12.91743 -3.05321,-8.45504 -6.57615,-16.67523 -10.803668,-24.42569 2.583488,8.68991 5.636698,16.9101 8.689908,25.36514 1.64404,4.22752 3.05321,8.45505 4.46238,12.44771 0.70459,2.11376 1.40918,4.22752 2.11377,6.34128 0,0.23487 0.23486,0.70459 0.23486,0.93945 -0.70459,3.7578 -1.40918,7.5156 -1.8789,11.50826 l -3.52294,21.37248 c -0.23486,-0.46973 -0.23486,-0.93945 -0.46972,-1.40918 -0.70459,-1.40917 -1.64404,-2.81835 -3.52294,-3.28807 -1.64403,-0.46973 -3.28807,0.46972 -4.69724,1.40917 -1.174316,0.93945 -2.113765,2.34863 -3.053215,3.52294 -1.644037,2.58348 -2.583486,5.6367 -3.053211,8.45504 -0.469725,3.05322 -0.704587,6.10643 0,9.15964 0.234862,1.40917 0.704587,3.05321 1.644037,4.46238 0.704587,1.40918 2.113761,2.81835 3.757798,3.05321 1.644041,0.23487 3.288071,-0.70458 4.227521,-1.8789 0.46973,-0.46972 0.93945,-1.17431 1.40918,-1.64403 -1.64404,11.03853 -3.52294,22.07706 -5.166976,33.35046 -2.113762,0.70458 -4.227523,1.17431 -6.341285,1.40917 -2.818348,0.46973 -5.636697,0.70459 -8.455046,0.93945 -5.871559,0.23486 -11.508256,-0.23486 -17.379816,-1.64404 -5.636697,-1.17431 -11.508257,-3.05321 -16.910092,-5.40183 -5.166972,-2.34862 -10.099082,-5.40184 -13.856881,-9.62936 3.522936,-12.91743 7.515597,-25.83486 11.508257,-38.75229 l 6.106422,-19.49358 5.87156,-19.72844 c 3.992661,-13.15229 7.985321,-26.30459 11.743119,-39.45688 1.878899,-6.57615 3.522936,-13.1523 5.401835,-19.72844 1.409174,-6.81101 4.227523,-13.1523 2.113762,-20.66789 v -0.23486 c -0.234863,-0.23487 -0.469725,-0.23487 -0.469725,0 -1.174312,1.17431 -1.878899,2.11376 -2.818349,3.28807 -2.583486,-5.87156 -5.401835,-11.50826 -7.985321,-17.37982 -0.704587,-2.11376 -1.409174,-4.22752 -1.878899,-6.57614 -1.174312,-4.93211 -2.113761,-9.86422 -2.348624,-14.79633 -0.234862,-2.58349 -0.234862,-4.932114 -0.234862,-7.5156 0,-2.583486 0.234862,-5.166973 0,-7.750459 -0.93945,-10.333945 -4.93211,-20.198165 -9.394496,-29.357798 -3.522935,-7.280734 -7.750458,-14.091743 -12.447706,-20.66789 7.750459,-2.113761 15.970642,-4.227523 22.546789,-5.401835 0.939449,2.113762 2.113761,3.992661 3.053211,6.106422 L 81.73211,63.177982 c 4.697248,9.159633 9.394495,18.319266 14.091743,27.478899 l 7.045867,13.622019 3.52294,6.81101 c 0.93945,1.40917 1.40917,3.05321 2.34862,4.22752 -3.05321,2.81835 -6.10642,5.6367 -9.159629,8.45505 -0.234862,0.23486 -0.469724,0.70458 0,1.17431 0.234863,0.46972 0.939449,0.46972 1.174309,0.23486 4.93211,-3.52293 9.86422,-7.28073 14.79633,-11.03853 l 14.79633,-11.2734 c 9.86422,-7.515592 19.49358,-15.031188 29.12294,-22.546784 9.62936,-7.515597 19.25871,-15.266055 28.88807,-23.016514 l 0.23486,-0.234862 c 5.16698,4.93211 12.91744,12.212844 21.13762,18.554128 -3.52294,1.878899 -6.81101,3.757798 -9.86422,6.106422 -4.93211,3.757798 -9.62936,7.985321 -13.85688,12.682569 -4.22752,4.697248 -8.22018,9.394491 -11.74312,14.561471 -2.58349,3.52293 -4.93211,7.28073 -7.28073,11.27339 -14.32661,11.74312 -28.41835,23.7211 -42.04037,36.16881 -0.46973,0.46972 -0.46973,1.17431 -0.23486,1.64403 0.46972,0.46973 1.17431,0.70459 1.64403,0.46973 -1.64403,4.69725 -2.58348,9.3945 -3.52293,14.09174 -1.40918,6.57615 -2.81835,13.1523 -3.99266,19.72844 z m 103.80917,31.47156 c -3.28807,2.58349 -7.28073,4.22753 -11.50826,5.16698 -4.22752,0.93944 -8.92477,0.93944 -13.38715,0.46972 -4.22752,-0.46972 -8.68991,-1.17431 -12.91743,-2.34862 -0.46973,-3.7578 0.23486,-7.98532 1.8789,-11.74312 1.64403,0.23486 3.05321,0.23486 4.69724,0.46972 0.70459,0 1.17432,-0.23486 1.40918,-0.93945 0.23486,-0.70458 0,-1.64403 -0.93945,-1.8789 -1.17431,-0.46972 -2.11376,-0.70458 -3.28808,-1.17431 0.93945,-1.64403 2.11377,-3.05321 3.28808,-4.46238 1.40917,-1.40918 2.81835,-2.81835 4.22752,-3.99266 3.05321,1.8789 6.10642,3.28807 9.62936,4.46238 3.99266,1.17431 8.22018,1.64404 12.68257,1.17431 4.22752,-0.46972 8.68991,-2.58348 11.50825,-6.10642 2.58349,-3.05321 3.7578,-6.57615 3.99267,-10.33394 0.46972,1.40917 0.46972,3.05321 0.23486,4.46238 -0.23486,1.8789 -0.46973,3.99266 -0.93945,5.87156 -0.23486,1.17431 -0.46973,2.34863 -0.70459,3.52294 -1.17431,0.70458 -2.34862,1.40917 -3.52293,2.11376 -1.40918,0.93945 -2.58349,1.8789 -3.7578,3.99266 2.11376,0.70459 3.7578,0.46972 5.40183,0 0.23486,0 0.23486,-0.23486 0.46973,-0.23486 -0.23486,0.70458 -0.23486,1.17431 -0.46973,1.8789 -1.8789,3.75779 -4.69725,7.04587 -7.98532,9.62935 z m 23.25138,-30.76697 c -1.17431,2.58349 -3.05321,4.93211 -5.16698,7.04587 -0.93945,0.93945 -2.11376,1.8789 -3.05321,2.58349 0,-2.11376 -0.23486,-4.22752 -0.70458,-6.34129 -0.23487,-1.17431 -0.46973,-2.11376 -0.93945,-3.28807 -0.46973,-0.93945 -0.93945,-2.11376 -2.11376,-2.81835 -0.23487,0 -0.46973,0 -0.46973,0.23486 -1.40917,3.52294 -3.7578,6.57615 -6.34128,8.68991 -2.58349,2.11376 -5.87156,3.05321 -9.15964,3.28808 -3.28807,0.23486 -6.81101,-0.46973 -10.33394,-1.40918 -3.52294,-0.93945 -7.04587,-2.11376 -10.56881,-3.28807 l -0.46972,-0.23486 c -0.70459,-0.23487 -1.64404,0 -2.11377,0.46972 -1.87889,2.34862 -3.28807,4.46239 -4.93211,6.81101 -1.17431,1.8789 -2.11376,3.52294 -3.05321,5.40183 -4.22752,-1.64403 -8.22018,-3.05321 -12.4477,-4.69724 -5.87156,-2.34863 -11.74312,-4.69725 -17.14496,-7.5156 -5.63669,-2.58349 -11.03853,-5.6367 -15.73578,-9.15963 -4.69724,-3.52294 -8.92477,-7.28074 -11.03853,-11.97798 v -0.23487 c -0.46972,-0.93945 -1.17431,-1.64403 -2.11376,-2.11376 0,-0.46972 0.23486,-1.17431 0.23486,-1.64403 0.70459,-5.6367 1.64404,-11.2734 1.17431,-17.14496 19.02386,-13.38715 37.57799,-27.4789 55.89725,-42.04037 -0.23486,0.70459 -0.46972,1.40918 -0.70459,2.11377 -1.17431,3.52293 -1.64403,7.51559 -1.64403,11.50825 0.23486,3.99266 1.40917,8.45505 3.99266,12.21285 2.58348,3.75779 6.10642,6.57614 9.62936,8.22018 1.8789,0.93945 3.75779,1.64404 5.40183,2.11376 0.93945,0.23486 1.8789,0.46973 2.81835,0.70459 l 2.34862,0.46972 c 6.10643,1.64404 11.97799,3.99266 17.37982,7.04587 5.40183,3.05322 10.56881,6.81101 14.79633,11.03854 4.22752,4.22752 7.5156,9.62935 7.98532,15.03119 0.23486,3.7578 -0.23486,6.57615 -1.40917,8.92477 z"
           id="path2"
           style="stroke-width:2.63137" /><path
           d="m 89.952294,247.07523 c -1.878899,2.58349 -3.288074,5.6367 -3.992661,8.68991 -0.469725,1.64403 -0.704587,3.28807 -0.704587,4.69724 l -0.234862,4.69725 c -0.469725,6.10642 -0.234863,12.68257 1.644036,18.78899 1.878899,6.10643 4.462386,11.74312 7.515597,17.14496 -0.93945,-3.05321 -2.113762,-5.87156 -3.053211,-8.68991 -0.93945,-2.81835 -1.8789,-5.87156 -2.583487,-8.92477 -1.409174,-5.87156 -1.409174,-11.97798 -1.174312,-18.08441 l 0.234863,-4.69724 c 0,-1.40918 0.234862,-3.05321 0.469725,-4.46239 0.704587,-2.81835 1.878899,-5.6367 3.288073,-8.22018 1.644037,-2.58349 3.522936,-4.93211 5.87156,-7.04587 2.113761,-2.11376 4.697252,-3.99266 7.515592,-5.40184 -5.871556,2.34863 -11.273391,6.10642 -14.796326,11.50826 z"
           id="path3"
           style="stroke-width:2.63137" /></g></g></g></svg>
