<?xml version="1.0" encoding="UTF-8" standalone="no"?>
<!-- Created with Inkscape (http://www.inkscape.org/) -->

<svg
   width="128"
   height="128"
   viewBox="0 0 128 128"
   version="1.1"
   id="svg1"
   xml:space="preserve"
   inkscape:version="1.4 (e7c3feb100, 2024-10-09)"
   sodipodi:docname="icon.svg"
   inkscape:export-filename="icon.png"
   inkscape:export-xdpi="96"
   inkscape:export-ydpi="96"
   xmlns:inkscape="http://www.inkscape.org/namespaces/inkscape"
   xmlns:sodipodi="http://sodipodi.sourceforge.net/DTD/sodipodi-0.dtd"
   xmlns="http://www.w3.org/2000/svg"
   xmlns:svg="http://www.w3.org/2000/svg"><sodipodi:namedview
     id="namedview1"
     pagecolor="#ffffff"
     bordercolor="#000000"
     borderopacity="0.25"
     inkscape:showpageshadow="2"
     inkscape:pageopacity="0.0"
     inkscape:pagecheckerboard="0"
     inkscape:deskcolor="#d1d1d1"
     inkscape:document-units="px"
     inkscape:zoom="4"
     inkscape:cx="21.5"
     inkscape:cy="62.375"
     inkscape:window-width="2560"
     inkscape:window-height="1003"
     inkscape:window-x="0"
     inkscape:window-y="0"
     inkscape:window-maximized="1"
     inkscape:current-layer="layer1"
     inkscape:export-bgcolor="#ffffffff" /><defs
     id="defs1"><inkscape:path-effect
       effect="fillet_chamfer"
       id="path-effect12"
       is_visible="true"
       lpeversion="1"
       nodesatellites_param="F,0,0,1,0,0,0,1 @ F,0,0,1,0,0,0,1 @ F,0,0,1,0,0,0,1 @ F,0,0,1,0,0,0,1"
       radius="0"
       unit="px"
       method="auto"
       mode="F"
       chamfer_steps="1"
       flexible="false"
       use_knot_distance="true"
       apply_no_radius="true"
       apply_with_radius="true"
       only_selected="false"
       hide_knots="false" /><inkscape:path-effect
       effect="fillet_chamfer"
       id="path-effect4"
       is_visible="true"
       lpeversion="1"
       nodesatellites_param="F,0,0,1,0,0,0,1 @ F,0,0,1,0,0,0,1 @ F,0,0,1,0,0,0,1 @ F,0,0,1,0,0,0,1"
       radius="0"
       unit="px"
       method="auto"
       mode="F"
       chamfer_steps="1"
       flexible="false"
       use_knot_distance="true"
       apply_no_radius="true"
       apply_with_radius="true"
       only_selected="false"
       hide_knots="false" /></defs><g
     inkscape:label="Camada 1"
     inkscape:groupmode="layer"
     id="layer1"><g
       id="g22"
       transform="matrix(0.83333333,0,0,0.83333333,6.666668,10.666667)"
       style="stroke-width:1.19999"><g
         id="g19"
         transform="matrix(2.5807856,0,0,2.5807856,-113.77828,-91.25264)"
         style="stroke-width:0.464975"><path
           style="fill:#e1e1d9;fill-opacity:1;stroke:none;stroke-width:0.116243;stroke-linecap:round;stroke-linejoin:round;stroke-dasharray:none;stroke-opacity:0.430041"
           d="m 47.0625,69.171875 c 8.848294,-0.857723 16.436361,0.04385 24.361248,0.475212 l 0.01439,-3.475212 0.374362,-28.167969 1.272075,-0.799888 1.343491,28.696489 -0.05603,4.70626 c 4.447976,1.496271 9.944218,3.033271 13.909218,5.736983 l 1.645383,-0.186129 1.774101,1.132916 -1.627624,0.584384 -0.35436,1.61401 C 77.49023,81.982547 56.978976,84.947546 48.111721,74.09375 Z"
           id="path17"
           sodipodi:nodetypes="cccccccccccccc" /><g
           id="g18"
           style="stroke-width:0.464975"><path
             style="fill:#3f3e29;fill-opacity:1;stroke:none;stroke-width:0.17574;stroke-linecap:butt;stroke-linejoin:round"
             d="M 71.409359,70.101453 C 58.681237,69.152459 53.666691,69.734638 48.111721,70.28495 56.292218,68.080478 64.150536,68.610075 71.438138,69.192722 Z"
             id="path5"
             sodipodi:nodetypes="cccc" /><path
             style="fill:#3f3e29;fill-opacity:1;stroke:none;stroke-width:0.17574;stroke-linecap:butt;stroke-linejoin:round"
             d="m 48.111721,70.28495 c 7.119781,9.823762 24.549231,9.311505 42.833914,6.565077 -6.89492,-4.821857 -11.681688,-5.427412 -16.573603,-6.24326 l 0.03218,-0.866965 c 6.864133,1.475261 12.82175,3.599494 17.684622,7.12613 0.07712,0.17788 0.05563,0.340589 -0.06447,0.488128 -5.371709,1.616221 -14.413486,2.609083 -25.633408,2.134871 C 59.235403,78.845108 51.003117,76.644647 48.111721,70.28495 Z"
             id="path6"
             sodipodi:nodetypes="cccccccc" /><path
             style="fill:#3f3e29;fill-opacity:1;stroke:none;stroke-width:0.17574;stroke-linecap:butt;stroke-linejoin:round"
             d="m 48.111721,70.28495 0.772363,4.827263 c 5.470898,8.442347 22.088751,10.615956 41.912711,5.627784 l 0.903939,-3.44946 -1.126419,3.094808 c -8.805797,1.80259 -32.868296,4.415643 -41.375981,-5.484181 z"
             id="path7"
             sodipodi:nodetypes="ccccccc" /><path
             style="fill:#3f3e29;fill-opacity:1;stroke:none;stroke-width:0.17574;stroke-linecap:butt;stroke-linejoin:round"
             d="m 64.763394,69.739802 c -3.207108,0.785623 -12.58182,4.652748 -13.432169,0.233816 l -0.266866,0.02406 c 1.184563,5.151494 12.394846,0.287272 13.943452,-0.278896 z"
             id="path8"
             sodipodi:nodetypes="ccccc" /><path
             style="fill:#3f3e29;fill-opacity:1;stroke:none;stroke-width:0.17574;stroke-linecap:butt;stroke-linejoin:round"
             d="m 51.232289,74.359116 c 1.386405,2.245393 3.727982,4.211582 6.463023,6.062759 L 59.234375,80.8125 C 56.90673,79.134937 54.525345,78.191813 52.3125,74.945312 Z"
             id="path9"
             sodipodi:nodetypes="ccccc" /><path
             style="fill:#3f3e29;fill-opacity:1;stroke:none;stroke-width:0.17574;stroke-linecap:butt;stroke-linejoin:round"
             d="m 63.705902,74.975416 -6.702703,1.563294 0.626004,0.29611 z"
             id="path10" /><path
             style="fill:#3f3e29;fill-opacity:1;stroke:none;stroke-width:0.17574;stroke-linecap:butt;stroke-linejoin:round"
             d="m 85.729915,81.200179 1.637272,-2.129867 -1.304931,2.083369 z"
             id="path11" /><path
             style="fill:#3f3e29;fill-opacity:1;stroke:none;stroke-width:0.17576;stroke-linecap:butt;stroke-linejoin:round;stroke-dasharray:none"
             d="m 67.009934,79.513693 c 2.240055,1.411978 4.899771,2.08593 8.838317,0.510907 0.111047,0.01 0.210376,0.303858 0.110485,0.342505 -3.366037,1.500822 -7.59386,1.020272 -9.56778,-0.878174 z"
             id="path12"
             sodipodi:nodetypes="ccccc"
             inkscape:path-effect="#path-effect12"
             inkscape:original-d="m 67.009934,79.513693 c 2.240055,1.411978 4.899771,2.08593 8.838317,0.510907 0.111047,0.01 0.210376,0.303858 0.110485,0.342505 -3.366037,1.500822 -7.59386,1.020272 -9.56778,-0.878174 z" /><path
             style="fill:#3f3e29;fill-opacity:1;stroke:none;stroke-width:0.17576;stroke-linecap:butt;stroke-linejoin:round;stroke-dasharray:none"
             d="m 84.126027,77.761847 c -3.898725,-1.758619 -10.661855,-3.704733 -12.520486,0.808778 0.01475,-1.570371 2.154512,-2.952916 3.800768,-3.120122 3.928827,-0.207698 6.519015,1.384317 8.719718,2.311344 z"
             id="path13"
             sodipodi:nodetypes="cccc" /><path
             style="fill:#3f3e29;fill-opacity:1;stroke:none;stroke-width:0.17576;stroke-linecap:butt;stroke-linejoin:round;stroke-dasharray:none"
             d="m 75.186369,78.491174 c 0.919565,-1.656354 3.168638,-1.656354 4.095568,-0.2534 l 0.430614,-0.03523 c -0.614139,-0.927313 -1.478712,-1.383221 -2.593718,-1.367725 -1.023499,-0.0036 -1.767102,0.552526 -2.230809,1.668479 z"
             id="path14"
             sodipodi:nodetypes="cccccc" /><path
             style="fill:#3f3e29;fill-opacity:1;stroke-width:0.464975;stroke-linejoin:round"
             d="m 71.433594,37.814453 0.105638,12.080179 0.534987,23.792868 c 1.664526,2.120035 2.940389,0.578079 3.298828,0 L 75.262299,65.247052 74.060547,37.814453 c -0.05803,-1.155044 -2.623298,-1.20442 -2.626953,0 z m 0.378906,0.189453 c 0.675713,-0.324706 1.365344,-0.736291 1.871094,0 l 1.3125,35.494141 c -0.456552,1.055515 -1.922554,1.063916 -2.542969,0 l -0.08809,-24.491358 z"
             id="rect14"
             sodipodi:nodetypes="ccccccccccccc" /><path
             style="fill:#3f3e29;fill-opacity:1;stroke-width:0.464975;stroke-linecap:round;stroke-linejoin:round"
             d="m 73.923828,39.839843 c -0.06857,0 -0.13597,0.005 -0.16211,0.06836 -1.987516,5.013951 -0.621999,8.583094 0.421875,10.572265 0.02059,0.06572 0.09046,0.102398 0.15625,0.08203 0.06673,-0.02056 0.103676,-0.09181 0.08203,-0.158203 -1.063269,-2.501881 -2.389779,-5.452648 -0.427734,-10.402342 0.02532,-0.06418 -0.0013,-0.16211 -0.07031,-0.16211 z"
             id="path15"
             sodipodi:nodetypes="scccccss" /><path
             style="fill:#3f3e29;fill-opacity:1;stroke-width:0.464975;stroke-linecap:round;stroke-linejoin:round"
             d="m 71.87197,50.58008 c 0.06685,-0.01523 0.133684,-0.02532 0.173244,0.03065 1.542069,1.666082 2.862473,6.541544 2.744046,10.574788 -0.0055,0.06865 -0.06546,0.119932 -0.13413,0.114683 -0.06963,-0.0052 -0.121477,-0.06649 -0.115117,-0.136034 -0.645874,-2.774977 -0.214547,-5.802021 -2.700595,-10.41041 -0.03894,-0.05696 -0.03473,-0.15835 0.03255,-0.173676 z"
             id="path16"
             sodipodi:nodetypes="scccccss" /></g><path
           style="fill:#ffffff;fill-opacity:1;stroke:none;stroke-width:0.116243;stroke-linecap:round;stroke-linejoin:round;stroke-dasharray:none;stroke-opacity:0.430041"
           d="M 76.632697,67.396115 C 70.300346,59.498581 68.693614,49.701178 71.8125,38.003906 61.992563,46.142534 54.311107,55.885023 46.292969,65.375 56.438148,64 68.716905,64.5 76.632697,67.396115 Z"
           id="path18"
           sodipodi:nodetypes="cccc" /><path
           style="fill:#3f3e29;fill-opacity:1;stroke-width:0.464975;stroke-linecap:round;stroke-linejoin:round"
           d="m 72.25344,37.207566 c -0.377609,0.175728 -0.746016,0.547352 -0.763797,0.606711 -1.684361,2.868663 -3.761827,5.527499 -6.688979,8.513689 -5.875267,5.993764 -13.230288,12.397858 -19.11707,19.134925 -0.111489,0.127951 -0.01092,0.326608 0.158203,0.3125 4.331968,-0.36693 9.045517,-0.09155 13.964468,0.264385 4.925688,0.356422 9.617816,0.494781 15.451547,1.981705 0.171945,0.04401 0.304237,-0.151839 0.199219,-0.294922 -9.356242,-12.645296 -2.372456,-30.522541 -2.372456,-30.522541 -0.229549,-0.125549 -0.591862,-0.103222 -0.831135,0.0035 z m -1.502938,4.180782 c -0.842707,2.5204 -4.151214,14.473219 4.186998,26.185871 -5.649975,-1.406449 -10.167559,-2.166923 -14.975165,-2.514801 -4.766461,-0.3449 -9.441611,-0.0205 -13.669366,0.315582 5.89484,-6.666445 13.490809,-12.823416 19.408136,-18.69058 2.461835,-2.440966 4.090355,-4.468303 5.049397,-5.296072 z"
           id="path4"
           sodipodi:nodetypes="ccsccsccccccscsc" /></g><g
         id="g21"
         transform="matrix(0.46692228,0,0,0.46692228,-2.514685,13.154772)"
         style="stroke-width:2.57001"><path
           style="fill:#e1e1d9;fill-opacity:1;stroke:none;stroke-width:0.642505;stroke-linecap:round;stroke-linejoin:round;stroke-dasharray:none;stroke-opacity:0.430041"
           d="M 180.29621,22.627417 178.3125,-6.75 208.125,-16.3125 267.0625,10.5 241.125,54.101965 Z"
           id="path20" /><path
           style="font-size:29.3333px;line-height:1.45;font-family:Roboto;-inkscape-font-specification:Roboto;text-align:center;letter-spacing:0px;word-spacing:0px;text-anchor:middle;white-space:pre;fill:#3f3e29;stroke-width:0.642505;stroke-linecap:round;stroke-linejoin:round;stroke-opacity:0.430041"
           d="m 199.82232,12.055969 q 0.12458,-0.44886 0.46948,-0.675427 0.35425,-0.223968 0.88726,-0.07603 0.53302,0.147944 0.72116,0.522454 0.19748,0.377106 0.0728,0.825966 -0.11939,0.430159 -0.4804,0.642182 -0.35164,0.21462 -0.88467,0.06667 -0.53301,-0.147943 -0.72375,-0.513102 -0.18137,-0.362564 -0.062,-0.792722 z m 8.94948,-6.1172043 q 1.54212,-1.0927916 3.38433,-0.5814753 3.20748,0.8902601 2.23107,4.5169843 l -1.8558,6.6861503 -1.72998,-0.480169 1.85838,-6.6955017 q 0.29435,-1.0966884 -0.056,-1.757926 -0.34091,-0.6586371 -1.3789,-0.9467388 -0.84162,-0.2335961 -1.60208,0.03877 -0.76048,0.2723646 -1.31827,0.9031337 l -2.00113,7.2098208 -1.73,-0.480171 3.98671,-14.36353429 1.72998,0.48017061 z m 12.59653,13.0744193 q -0.0665,-0.340767 0.0527,-1.133527 -1.55412,0.918245 -3.22798,0.45365 -1.4962,-0.415281 -2.22579,-1.524233 -0.71764,-1.115707 -0.35685,-2.415532 0.43864,-1.580361 1.87698,-2.117803 1.45029,-0.544198 3.62913,0.06055 l 1.68323,0.467192 0.22062,-0.794857 q 0.25176,-0.907073 -0.14267,-1.590633 -0.39183,-0.6929134 -1.44852,-0.9862072 -0.92578,-0.2569547 -1.68209,0.036709 -0.75631,0.2936641 -0.94059,0.9576032 l -1.73933,-0.482765 q 0.21023,-0.7574523 0.93791,-1.3108535 0.73964,-0.5601555 1.77027,-0.7172495 1.03997,-0.1545011 2.14343,0.1517712 1.74868,0.4853609 2.49593,1.6395039 0.74986,1.1447889 0.36161,2.6887789 l -1.29258,4.656928 q -0.38673,1.393336 -0.25979,2.314878 l -0.0415,0.149619 z m -2.50485,-2.115351 q 0.81356,0.225811 1.65975,0.0074 0.84619,-0.218356 1.36037,-0.800803 l 0.57621,-2.07598 -1.35594,-0.376348 q -3.17943,-0.882476 -3.69593,0.978425 -0.22582,0.813559 0.18938,1.422311 0.41519,0.608752 1.26616,0.844942 z m 11.11099,-6.393492 -0.26472,1.135125 q 1.47617,-1.00031 3.36513,-0.476017 2.12274,0.589182 2.43791,2.429132 0.70743,-0.58924 1.63622,-0.814885 0.93814,-0.223051 2.04158,0.08322 3.32907,0.924005 2.40666,4.465001 l -1.88175,6.779664 -1.72998,-0.480169 1.8532,-6.6768 q 0.30108,-1.084745 -0.0465,-1.755331 -0.34508,-0.679934 -1.51398,-1.004373 -0.9632,-0.267339 -1.76,0.135944 -0.79421,0.393931 -1.16701,1.337911 l -1.86358,6.714206 -1.73933,-0.482766 1.84021,-6.630044 q 0.61254,-2.206897 -1.54759,-2.80646 -1.70193,-0.472383 -2.73078,0.803162 l -2.05045,7.387496 -1.72997,-0.480171 2.80833,-10.118062 z m 14.22964,14.847087 -1.72997,-0.480169 3.98671,-14.363534 1.72998,0.480169 z"
           id="text19"
           aria-label=".haml" /><path
           style="fill:#3f3e29;fill-opacity:1;stroke:none;stroke-width:0.642505;stroke-linecap:round;stroke-linejoin:round;stroke-dasharray:none;stroke-opacity:0.430041"
           d="M 182.52194,-4.9497475 209.52292,-15.676541 267.0625,5.347495 246.74097,46.462322 186.10167,23.82066 249.43192,53.740116 270.95448,4.2868349 209.48038,-19.489631 179.21198,-7.0385124 185.70392,23.732271 Z"
           id="path21"
           sodipodi:nodetypes="ccccccccccc" /></g></g></g></svg>
